<svg width="40" height="40" viewBox="0 0 40 40" fill="none" xmlns="http://www.w3.org/2000/svg">
<rect width="40" height="40" fill="#D3CCDC"/>
<path d="M19.1581 29.9999C16.7292 29.9999 14.3998 29.0342 12.6823 27.3152C10.9649 25.5962 10 23.2648 10 20.8338C10 18.4028 10.9649 16.0713 12.6823 14.3524C14.3998 12.6334 16.7292 11.6677 19.1581 11.6677H19.9929L20.0038 12.5032L19.9929 19.9982H28.3161V20.8338C28.3135 23.264 27.3478 25.5939 25.6309 27.3123C23.914 29.0307 21.5861 29.9972 19.1581 29.9999ZM18.3333 13.3847C16.9316 13.5404 15.6022 14.089 14.4984 14.9675C13.3945 15.8459 12.5609 17.0186 12.0935 18.3503C11.6262 19.6821 11.5441 21.1189 11.8567 22.4954C12.1693 23.8718 12.8639 25.1319 13.8605 26.1306C14.8571 27.1293 16.1153 27.826 17.4901 28.1406C18.865 28.4551 20.3006 28.3747 21.6318 27.9085C22.963 27.4424 24.1356 26.6095 25.0146 25.5057C25.8937 24.4019 26.4434 23.0721 26.6006 21.6693H18.3232L18.3333 13.3847Z" fill="#1C1C1C"/>
<path d="M23.3481 11.8834C24.4949 12.1836 25.5411 12.784 26.3794 13.6227C27.2177 14.4615 27.8179 15.5084 28.1183 16.6561H23.3481V11.8834ZM21.6785 10V18.3272H30C29.9893 16.1217 29.109 14.0097 27.5507 12.4503C25.9924 10.8909 23.882 10.0103 21.6785 10Z" fill="#1C1C1C"/>
</svg>
