<svg width="208" height="40" viewBox="0 0 208 40" fill="none" xmlns="http://www.w3.org/2000/svg">
<rect width="208" height="40" rx="4" fill="#E7D5FF"/>
<rect width="40" height="40" fill="#D3CCDC"/>
<path d="M19.1581 29.9999C16.7292 29.9999 14.3998 29.0342 12.6823 27.3152C10.9649 25.5962 10 23.2648 10 20.8338C10 18.4028 10.9649 16.0713 12.6823 14.3524C14.3998 12.6334 16.7292 11.6677 19.1581 11.6677H19.9929L20.0038 12.5032L19.9929 19.9982H28.3161V20.8338C28.3135 23.264 27.3478 25.5939 25.6309 27.3123C23.914 29.0307 21.5861 29.9972 19.1581 29.9999ZM18.3333 13.3847C16.9316 13.5404 15.6022 14.089 14.4984 14.9675C13.3945 15.8459 12.5609 17.0186 12.0935 18.3503C11.6262 19.6821 11.5441 21.1189 11.8567 22.4954C12.1693 23.8718 12.8639 25.1319 13.8605 26.1306C14.8571 27.1293 16.1153 27.826 17.4901 28.1406C18.865 28.4551 20.3006 28.3747 21.6318 27.9085C22.963 27.4424 24.1356 26.6095 25.0146 25.5057C25.8937 24.4019 26.4434 23.0721 26.6006 21.6693H18.3232L18.3333 13.3847Z" fill="#1C1C1C"/>
<path d="M23.3481 11.8834C24.4949 12.1836 25.5411 12.784 26.3794 13.6227C27.2177 14.4615 27.8179 15.5084 28.1183 16.6561H23.3481V11.8834ZM21.6785 10V18.3272H30C29.9893 16.1217 29.109 14.0097 27.5507 12.4503C25.9924 10.8909 23.882 10.0103 21.6785 10Z" fill="#1C1C1C"/>
<path d="M56.4148 25H53.1186V14.8182H56.5192C57.5168 14.8182 58.3736 15.022 59.0895 15.4297C59.8054 15.834 60.3539 16.4157 60.7351 17.1747C61.1196 17.9304 61.3118 18.8369 61.3118 19.8942C61.3118 20.9548 61.1179 21.8662 60.7301 22.6286C60.3456 23.3909 59.7888 23.9775 59.0597 24.3885C58.3305 24.7962 57.4489 25 56.4148 25ZM54.6548 23.6577H56.3303C57.1058 23.6577 57.7505 23.5118 58.2642 23.2202C58.7779 22.9252 59.1624 22.4993 59.4176 21.9425C59.6728 21.3823 59.8004 20.6996 59.8004 19.8942C59.8004 19.0954 59.6728 18.4176 59.4176 17.8608C59.1657 17.304 58.7895 16.8814 58.2891 16.593C57.7886 16.3047 57.1671 16.1605 56.4247 16.1605H54.6548V23.6577ZM65.3251 25.169C64.8412 25.169 64.4037 25.0795 64.0126 24.9006C63.6215 24.7183 63.3116 24.4548 63.0829 24.1101C62.8575 23.7654 62.7449 23.3428 62.7449 22.8423C62.7449 22.4115 62.8277 22.0568 62.9934 21.7784C63.1592 21.5 63.3829 21.2796 63.6646 21.1172C63.9463 20.9548 64.2612 20.8321 64.6092 20.7493C64.9572 20.6664 65.3118 20.6035 65.6731 20.5604C66.1305 20.5073 66.5017 20.4643 66.7868 20.4311C67.0718 20.3946 67.2789 20.3366 67.4082 20.2571C67.5375 20.1776 67.6021 20.0483 67.6021 19.8693V19.8345C67.6021 19.4003 67.4795 19.0639 67.2342 18.8253C66.9922 18.5866 66.631 18.4673 66.1504 18.4673C65.6499 18.4673 65.2555 18.5784 64.9672 18.8004C64.6821 19.0192 64.4849 19.2628 64.3755 19.5312L62.9785 19.2131C63.1442 18.7491 63.3862 18.3745 63.7044 18.0895C64.0259 17.8011 64.3954 17.5923 64.813 17.4631C65.2306 17.3305 65.6698 17.2642 66.1305 17.2642C66.4354 17.2642 66.7586 17.3007 67.1 17.3736C67.4447 17.4432 67.7662 17.5724 68.0645 17.7614C68.3661 17.9503 68.613 18.2204 68.8052 18.5717C68.9975 18.9197 69.0936 19.3722 69.0936 19.929V25H67.6419V23.956H67.5822C67.4861 24.1482 67.3419 24.3371 67.1497 24.5227C66.9574 24.7083 66.7105 24.8625 66.4089 24.9851C66.1073 25.1077 65.746 25.169 65.3251 25.169ZM65.6483 23.9759C66.0592 23.9759 66.4106 23.8946 66.7022 23.7322C66.9972 23.5698 67.2209 23.3577 67.3734 23.0959C67.5292 22.8307 67.6071 22.5473 67.6071 22.2457V21.2614C67.554 21.3144 67.4513 21.3641 67.2988 21.4105C67.1497 21.4536 66.979 21.4917 66.7868 21.5249C66.5945 21.5547 66.4073 21.5829 66.225 21.6094C66.0427 21.6326 65.8902 21.6525 65.7676 21.669C65.4792 21.7055 65.2157 21.7668 64.9771 21.853C64.7418 21.9392 64.5529 22.0634 64.4103 22.2259C64.2711 22.3849 64.2015 22.5971 64.2015 22.8622C64.2015 23.2301 64.3374 23.5085 64.6092 23.6974C64.881 23.883 65.2273 23.9759 65.6483 23.9759ZM76.7958 19.228L75.4485 19.4666C75.3922 19.2943 75.3027 19.1302 75.18 18.9744C75.0607 18.8187 74.8983 18.6911 74.6928 18.5916C74.4873 18.4922 74.2305 18.4425 73.9222 18.4425C73.5013 18.4425 73.15 18.5369 72.8683 18.7259C72.5865 18.9115 72.4457 19.1518 72.4457 19.4467C72.4457 19.7019 72.5401 19.9074 72.729 20.0632C72.918 20.219 73.2229 20.3466 73.6438 20.446L74.8569 20.7244C75.5595 20.8868 76.0832 21.1371 76.4279 21.4751C76.7726 21.8132 76.945 22.2524 76.945 22.7926C76.945 23.25 76.8124 23.6577 76.5472 24.0156C76.2854 24.3703 75.9192 24.6487 75.4485 24.8509C74.9812 25.053 74.4393 25.1541 73.8228 25.1541C72.9677 25.1541 72.27 24.9718 71.7298 24.6072C71.1895 24.2393 70.8581 23.7173 70.7354 23.0412L72.1722 22.8224C72.2617 23.197 72.4457 23.4804 72.7241 23.6726C73.0025 23.8615 73.3654 23.956 73.8129 23.956C74.3001 23.956 74.6895 23.8549 74.9812 23.6527C75.2728 23.4472 75.4187 23.197 75.4187 22.902C75.4187 22.6634 75.3292 22.4628 75.1502 22.3004C74.9746 22.138 74.7044 22.0154 74.3398 21.9325L73.0472 21.6491C72.3346 21.4867 71.8076 21.2282 71.4663 20.8736C71.1282 20.5189 70.9592 20.0698 70.9592 19.5263C70.9592 19.0755 71.0851 18.6811 71.337 18.343C71.5889 18.005 71.9369 17.7415 72.381 17.5526C72.8252 17.3603 73.3339 17.2642 73.9073 17.2642C74.7326 17.2642 75.3822 17.4432 75.8562 17.8011C76.3301 18.1558 76.6433 18.6314 76.7958 19.228ZM80.0659 20.4659V25H78.5794V14.8182H80.046V18.6065H80.1404C80.3194 18.1955 80.5929 17.8691 80.9608 17.6271C81.3287 17.3852 81.8092 17.2642 82.4025 17.2642C82.9262 17.2642 83.3836 17.3719 83.7747 17.5874C84.1691 17.8028 84.474 18.1243 84.6895 18.5518C84.9082 18.9761 85.0176 19.5064 85.0176 20.1428V25H83.5311V20.3217C83.5311 19.7616 83.3869 19.3274 83.0985 19.0192C82.8102 18.7076 82.4092 18.5518 81.8954 18.5518C81.5441 18.5518 81.2292 18.6264 80.9508 18.7756C80.6757 18.9247 80.4586 19.1435 80.2995 19.4318C80.1438 19.7169 80.0659 20.0616 80.0659 20.4659ZM87.1206 25V14.8182H88.6071V18.6016H88.6966C88.7827 18.4425 88.907 18.2585 89.0694 18.0497C89.2318 17.8409 89.4572 17.6586 89.7456 17.5028C90.0339 17.3438 90.4151 17.2642 90.889 17.2642C91.5055 17.2642 92.0557 17.42 92.5396 17.7315C93.0235 18.0431 93.403 18.4922 93.6781 19.0788C93.9565 19.6655 94.0957 20.3714 94.0957 21.1967C94.0957 22.022 93.9582 22.7296 93.6831 23.3196C93.408 23.9062 93.0301 24.3587 92.5495 24.6768C92.069 24.9917 91.5204 25.1491 90.9039 25.1491C90.4399 25.1491 90.0604 25.0713 89.7654 24.9155C89.4738 24.7597 89.2451 24.5774 89.0794 24.3686C88.9136 24.1598 88.786 23.9742 88.6966 23.8118H88.5723V25H87.1206ZM88.5772 21.1818C88.5772 21.7187 88.6551 22.1894 88.8109 22.5938C88.9667 22.9981 89.1921 23.3146 89.487 23.5433C89.782 23.7687 90.1433 23.8814 90.5708 23.8814C91.015 23.8814 91.3862 23.7637 91.6845 23.5284C91.9828 23.2898 92.2082 22.9666 92.3606 22.5589C92.5164 22.1513 92.5943 21.6922 92.5943 21.1818C92.5943 20.678 92.5181 20.2256 92.3656 19.8246C92.2164 19.4235 91.9911 19.107 91.6895 18.875C91.3912 18.643 91.0183 18.527 90.5708 18.527C90.14 18.527 89.7754 18.638 89.4771 18.8601C89.1821 19.0821 88.9584 19.392 88.8059 19.7898C88.6535 20.1875 88.5772 20.6515 88.5772 21.1818ZM98.9815 25.1541C98.2656 25.1541 97.6409 24.9901 97.1072 24.6619C96.5736 24.3338 96.1593 23.8748 95.8643 23.2848C95.5694 22.6948 95.4219 22.0054 95.4219 21.2166C95.4219 20.4245 95.5694 19.7318 95.8643 19.1385C96.1593 18.5452 96.5736 18.0845 97.1072 17.7564C97.6409 17.4283 98.2656 17.2642 98.9815 17.2642C99.6974 17.2642 100.322 17.4283 100.856 17.7564C101.389 18.0845 101.804 18.5452 102.099 19.1385C102.394 19.7318 102.541 20.4245 102.541 21.2166C102.541 22.0054 102.394 22.6948 102.099 23.2848C101.804 23.8748 101.389 24.3338 100.856 24.6619C100.322 24.9901 99.6974 25.1541 98.9815 25.1541ZM98.9865 23.9062C99.4505 23.9062 99.835 23.7836 100.14 23.5384C100.445 23.2931 100.67 22.9666 100.816 22.5589C100.965 22.1513 101.04 21.7022 101.04 21.2116C101.04 20.7244 100.965 20.277 100.816 19.8693C100.67 19.4583 100.445 19.1286 100.14 18.88C99.835 18.6314 99.4505 18.5071 98.9865 18.5071C98.5192 18.5071 98.1314 18.6314 97.8232 18.88C97.5182 19.1286 97.2912 19.4583 97.142 19.8693C96.9962 20.277 96.9233 20.7244 96.9233 21.2116C96.9233 21.7022 96.9962 22.1513 97.142 22.5589C97.2912 22.9666 97.5182 23.2931 97.8232 23.5384C98.1314 23.7836 98.5192 23.9062 98.9865 23.9062ZM106.423 25.169C105.939 25.169 105.501 25.0795 105.11 24.9006C104.719 24.7183 104.409 24.4548 104.181 24.1101C103.955 23.7654 103.843 23.3428 103.843 22.8423C103.843 22.4115 103.925 22.0568 104.091 21.7784C104.257 21.5 104.481 21.2796 104.762 21.1172C105.044 20.9548 105.359 20.8321 105.707 20.7493C106.055 20.6664 106.41 20.6035 106.771 20.5604C107.228 20.5073 107.599 20.4643 107.884 20.4311C108.169 20.3946 108.377 20.3366 108.506 20.2571C108.635 20.1776 108.7 20.0483 108.7 19.8693V19.8345C108.7 19.4003 108.577 19.0639 108.332 18.8253C108.09 18.5866 107.729 18.4673 107.248 18.4673C106.748 18.4673 106.353 18.5784 106.065 18.8004C105.78 19.0192 105.583 19.2628 105.473 19.5312L104.076 19.2131C104.242 18.7491 104.484 18.3745 104.802 18.0895C105.124 17.8011 105.493 17.5923 105.911 17.4631C106.328 17.3305 106.767 17.2642 107.228 17.2642C107.533 17.2642 107.856 17.3007 108.198 17.3736C108.542 17.4432 108.864 17.5724 109.162 17.7614C109.464 17.9503 109.711 18.2204 109.903 18.5717C110.095 18.9197 110.191 19.3722 110.191 19.929V25H108.74V23.956H108.68C108.584 24.1482 108.44 24.3371 108.247 24.5227C108.055 24.7083 107.808 24.8625 107.507 24.9851C107.205 25.1077 106.844 25.169 106.423 25.169ZM106.746 23.9759C107.157 23.9759 107.508 23.8946 107.8 23.7322C108.095 23.5698 108.319 23.3577 108.471 23.0959C108.627 22.8307 108.705 22.5473 108.705 22.2457V21.2614C108.652 21.3144 108.549 21.3641 108.396 21.4105C108.247 21.4536 108.077 21.4917 107.884 21.5249C107.692 21.5547 107.505 21.5829 107.323 21.6094C107.14 21.6326 106.988 21.6525 106.865 21.669C106.577 21.7055 106.313 21.7668 106.075 21.853C105.839 21.9392 105.651 22.0634 105.508 22.2259C105.369 22.3849 105.299 22.5971 105.299 22.8622C105.299 23.2301 105.435 23.5085 105.707 23.6974C105.979 23.883 106.325 23.9759 106.746 23.9759ZM112.171 25V17.3636H113.608V18.5767H113.688C113.827 18.1657 114.072 17.8426 114.423 17.6072C114.778 17.3686 115.179 17.2493 115.626 17.2493C115.719 17.2493 115.829 17.2526 115.955 17.2592C116.084 17.2659 116.185 17.2741 116.258 17.2841V18.706C116.198 18.6894 116.092 18.6712 115.94 18.6513C115.787 18.6281 115.635 18.6165 115.482 18.6165C115.131 18.6165 114.818 18.6911 114.543 18.8402C114.271 18.986 114.055 19.1899 113.896 19.4517C113.737 19.7102 113.658 20.0052 113.658 20.3366V25H112.171ZM120.129 25.1491C119.513 25.1491 118.963 24.9917 118.479 24.6768C117.998 24.3587 117.62 23.9062 117.345 23.3196C117.074 22.7296 116.938 22.022 116.938 21.1967C116.938 20.3714 117.075 19.6655 117.35 19.0788C117.629 18.4922 118.01 18.0431 118.494 17.7315C118.978 17.42 119.526 17.2642 120.139 17.2642C120.613 17.2642 120.994 17.3438 121.283 17.5028C121.575 17.6586 121.8 17.8409 121.959 18.0497C122.121 18.2585 122.247 18.4425 122.337 18.6016H122.426V14.8182H123.913V25H122.461V23.8118H122.337C122.247 23.9742 122.118 24.1598 121.949 24.3686C121.783 24.5774 121.555 24.7597 121.263 24.9155C120.971 25.0713 120.593 25.1491 120.129 25.1491ZM120.458 23.8814C120.885 23.8814 121.246 23.7687 121.541 23.5433C121.84 23.3146 122.065 22.9981 122.218 22.5938C122.373 22.1894 122.451 21.7187 122.451 21.1818C122.451 20.6515 122.375 20.1875 122.222 19.7898C122.07 19.392 121.846 19.0821 121.551 18.8601C121.256 18.638 120.892 18.527 120.458 18.527C120.01 18.527 119.637 18.643 119.339 18.875C119.041 19.107 118.815 19.4235 118.663 19.8246C118.514 20.2256 118.439 20.678 118.439 21.1818C118.439 21.6922 118.515 22.1513 118.668 22.5589C118.82 22.9666 119.046 23.2898 119.344 23.5284C119.646 23.7637 120.017 23.8814 120.458 23.8814Z" fill="black"/>
</svg>
