<svg width="40" height="40" viewBox="0 0 40 40" fill="none" xmlns="http://www.w3.org/2000/svg">
<mask id="mask0_174_318" style="mask-type:alpha" maskUnits="userSpaceOnUse" x="10" y="10" width="20" height="20">
<rect x="10" y="10" width="20" height="20" fill="#D9D9D9"/>
</mask>
<g mask="url(#mask0_174_318)">
<path d="M16.6061 13.3339C14.3623 13.3643 12.5307 15.1958 12.5004 17.4396C12.47 19.7658 14.3449 21.6668 16.6668 21.6668C18.9671 21.6624 20.829 19.8006 20.8333 17.5003C20.8333 15.1784 18.9367 13.2992 16.6061 13.3339ZM16.6668 19.8136C15.3865 19.8136 14.3536 18.7763 14.3536 17.5003C14.3536 16.22 15.3909 15.1871 16.6668 15.1871C17.9428 15.1871 18.9801 16.2244 18.9801 17.5003C18.9801 18.7763 17.9472 19.8136 16.6668 19.8136Z" fill="#1C1C1C"/>
<path d="M23.3313 26.6681C23.3324 26.6681 23.3333 26.6672 23.3333 26.666C23.3281 24.3662 21.3799 22.504 18.9743 22.5001H14.3549C11.9528 22.504 10.0041 24.3673 10 26.6681V29.1681C10 29.629 10.3922 30.0001 10.8702 30.0001C11.3522 30.0001 11.7403 29.6251 11.7403 29.1681V26.6681C11.7403 25.2892 12.9128 24.1681 14.3549 24.1681H18.9743C20.4164 24.1681 21.5889 25.2892 21.5889 26.6681V29.1681C21.5889 29.629 21.9811 30.0001 22.4591 30.0001C22.9411 30.0001 23.3292 29.6251 23.3292 29.1681V26.6701C23.3292 26.669 23.3302 26.6681 23.3313 26.6681Z" fill="#1C1C1C"/>
<path d="M24.5289 10.0005C22.5094 10.0279 20.861 11.6762 20.8337 13.6957C20.8064 15.7893 22.4938 17.5001 24.5835 17.5001C26.6538 17.4962 28.3295 15.8205 28.3334 13.7503C28.3295 11.6606 26.6225 9.9693 24.5289 10.0005ZM24.5796 15.8322C23.4273 15.8322 22.4977 14.8987 22.4977 13.7503C22.4977 12.5981 23.4312 11.6684 24.5796 11.6684C25.728 11.6684 26.6616 12.602 26.6616 13.7503C26.6655 14.8987 25.7319 15.8322 24.5796 15.8322Z" fill="#1C1C1C"/>
<path d="M30 23.3369C29.9958 21.035 28.0182 19.1707 25.5762 19.1668H22.5497C22.0605 19.1668 21.6666 19.542 21.6666 19.9993C21.6666 20.4605 22.0646 20.8317 22.5497 20.8317H25.5762C27.0398 20.8317 28.2296 21.9534 28.2296 23.333V25.8343C28.2296 26.2955 28.6277 26.6668 29.1127 26.6668C29.6019 26.6668 29.9958 26.2916 29.9958 25.8343V23.3369H30Z" fill="#1C1C1C"/>
</g>
</svg>
