<svg width="168" height="68" viewBox="0 0 168 68" fill="none" xmlns="http://www.w3.org/2000/svg">
<g filter="url(#filter0_d_6_1933)">
<rect x="15" y="15" width="136" height="36" rx="4" fill="#882EFD"/>
</g>
<path d="M65.3118 38H63.343L66.9276 27.8182H69.2045L72.794 38H70.8253L68.1058 29.9062H68.0263L65.3118 38ZM65.3764 34.0078H70.7457V35.4893H65.3764V34.0078ZM76.657 38.1342C76.0571 38.1342 75.5201 37.9801 75.0462 37.6719C74.5722 37.3636 74.1977 36.9162 73.9226 36.3295C73.6475 35.7429 73.5099 35.0303 73.5099 34.1918C73.5099 33.3433 73.6491 32.6274 73.9276 32.044C74.2093 31.4574 74.5888 31.0149 75.0661 30.7166C75.5433 30.415 76.0753 30.2642 76.6619 30.2642C77.1094 30.2642 77.4773 30.3404 77.7656 30.4929C78.054 30.642 78.2827 30.8227 78.4517 31.0348C78.6207 31.2436 78.7517 31.4408 78.8445 31.6264H78.919V27.8182H80.7237V38H78.9538V36.7969H78.8445C78.7517 36.9825 78.6174 37.1797 78.4418 37.3885C78.2661 37.594 78.0341 37.7696 77.7457 37.9155C77.4574 38.0613 77.0945 38.1342 76.657 38.1342ZM77.1591 36.6577C77.5402 36.6577 77.8651 36.5549 78.1335 36.3494C78.402 36.1406 78.6058 35.8506 78.745 35.4794C78.8842 35.1082 78.9538 34.6757 78.9538 34.1818C78.9538 33.688 78.8842 33.2588 78.745 32.8942C78.6091 32.5296 78.407 32.2462 78.1385 32.044C77.8733 31.8419 77.5469 31.7408 77.1591 31.7408C76.758 31.7408 76.4233 31.8452 76.1548 32.054C75.8864 32.2628 75.6842 32.5511 75.5483 32.919C75.4124 33.2869 75.3445 33.7079 75.3445 34.1818C75.3445 34.6591 75.4124 35.085 75.5483 35.4595C75.6875 35.8307 75.8913 36.1241 76.1598 36.3395C76.4316 36.5516 76.7647 36.6577 77.1591 36.6577ZM85.4753 38.1342C84.8754 38.1342 84.3385 37.9801 83.8645 37.6719C83.3906 37.3636 83.016 36.9162 82.7409 36.3295C82.4658 35.7429 82.3283 35.0303 82.3283 34.1918C82.3283 33.3433 82.4675 32.6274 82.7459 32.044C83.0276 31.4574 83.4071 31.0149 83.8844 30.7166C84.3617 30.415 84.8936 30.2642 85.4803 30.2642C85.9277 30.2642 86.2956 30.3404 86.584 30.4929C86.8723 30.642 87.101 30.8227 87.2701 31.0348C87.4391 31.2436 87.57 31.4408 87.6628 31.6264H87.7374V27.8182H89.5421V38H87.7722V36.7969H87.6628C87.57 36.9825 87.4358 37.1797 87.2601 37.3885C87.0845 37.594 86.8525 37.7696 86.5641 37.9155C86.2757 38.0613 85.9128 38.1342 85.4753 38.1342ZM85.9775 36.6577C86.3586 36.6577 86.6834 36.5549 86.9519 36.3494C87.2203 36.1406 87.4242 35.8506 87.5634 35.4794C87.7026 35.1082 87.7722 34.6757 87.7722 34.1818C87.7722 33.688 87.7026 33.2588 87.5634 32.8942C87.4275 32.5296 87.2253 32.2462 86.9569 32.044C86.6917 31.8419 86.3652 31.7408 85.9775 31.7408C85.5764 31.7408 85.2417 31.8452 84.9732 32.054C84.7047 32.2628 84.5025 32.5511 84.3667 32.919C84.2308 33.2869 84.1628 33.7079 84.1628 34.1818C84.1628 34.6591 84.2308 35.085 84.3667 35.4595C84.5059 35.8307 84.7097 36.1241 84.9782 36.3395C85.2499 36.5516 85.583 36.6577 85.9775 36.6577ZM103.727 31.2536H101.868C101.815 30.9486 101.717 30.6785 101.575 30.4432C101.432 30.2045 101.255 30.0024 101.043 29.8366C100.83 29.6709 100.589 29.5466 100.317 29.4638C100.048 29.3776 99.7583 29.3345 99.4467 29.3345C98.8932 29.3345 98.4027 29.4737 97.9751 29.7521C97.5476 30.0272 97.2128 30.4316 96.9709 30.9652C96.7289 31.4955 96.608 32.1435 96.608 32.9091C96.608 33.688 96.7289 34.3442 96.9709 34.8778C97.2161 35.4081 97.5509 35.8092 97.9751 36.081C98.4027 36.3494 98.8916 36.4837 99.4418 36.4837C99.7467 36.4837 100.032 36.4439 100.297 36.3643C100.565 36.2815 100.806 36.1605 101.018 36.0014C101.233 35.8423 101.414 35.6468 101.56 35.4148C101.709 35.1828 101.812 34.9176 101.868 34.6193L103.727 34.6293C103.658 35.1132 103.507 35.5672 103.275 35.9915C103.046 36.4157 102.746 36.7902 102.375 37.1151C102.004 37.4366 101.57 37.6884 101.072 37.8707C100.575 38.0497 100.023 38.1392 99.4169 38.1392C98.522 38.1392 97.7232 37.9321 97.0206 37.5178C96.3179 37.1035 95.7644 36.5052 95.3601 35.723C94.9557 34.9408 94.7536 34.0028 94.7536 32.9091C94.7536 31.812 94.9574 30.8741 95.3651 30.0952C95.7727 29.313 96.3279 28.7147 97.0305 28.3004C97.7332 27.8861 98.5286 27.679 99.4169 27.679C99.9837 27.679 100.511 27.7585 100.998 27.9176C101.485 28.0767 101.919 28.3104 102.3 28.6186C102.682 28.9235 102.995 29.2981 103.24 29.7422C103.489 30.183 103.651 30.6868 103.727 31.2536ZM107.137 27.8182V38H105.337V27.8182H107.137ZM108.987 38V30.3636H110.787V38H108.987ZM109.892 29.2798C109.607 29.2798 109.362 29.1854 109.156 28.9964C108.951 28.8042 108.848 28.5739 108.848 28.3054C108.848 28.0336 108.951 27.8033 109.156 27.6143C109.362 27.4221 109.607 27.326 109.892 27.326C110.18 27.326 110.426 27.4221 110.628 27.6143C110.833 27.8033 110.936 28.0336 110.936 28.3054C110.936 28.5739 110.833 28.8042 110.628 28.9964C110.426 29.1854 110.18 29.2798 109.892 29.2798ZM116.018 38.1491C115.253 38.1491 114.591 37.9901 114.035 37.6719C113.481 37.3504 113.055 36.8963 112.757 36.3097C112.459 35.7197 112.309 35.0253 112.309 34.2266C112.309 33.4411 112.459 32.7517 112.757 32.1584C113.059 31.5618 113.479 31.0978 114.02 30.7663C114.56 30.4316 115.195 30.2642 115.924 30.2642C116.394 30.2642 116.839 30.3404 117.256 30.4929C117.677 30.642 118.048 30.8741 118.37 31.1889C118.695 31.5038 118.95 31.9048 119.135 32.392C119.321 32.8759 119.414 33.4527 119.414 34.1222V34.674H113.155V33.4609H117.689C117.685 33.1162 117.611 32.8097 117.465 32.5412C117.319 32.2694 117.115 32.0556 116.854 31.8999C116.595 31.7441 116.293 31.6662 115.949 31.6662C115.581 31.6662 115.258 31.7557 114.979 31.9347C114.701 32.1103 114.484 32.3423 114.328 32.6307C114.175 32.9157 114.098 33.2289 114.094 33.5703V34.6293C114.094 35.0734 114.175 35.4545 114.338 35.7727C114.5 36.0876 114.727 36.3295 115.019 36.4986C115.311 36.6643 115.652 36.7472 116.043 36.7472C116.305 36.7472 116.542 36.7107 116.754 36.6378C116.966 36.5616 117.15 36.4505 117.306 36.3047C117.462 36.1589 117.579 35.9782 117.659 35.7628L119.339 35.9517C119.233 36.3958 119.031 36.7836 118.733 37.1151C118.438 37.4432 118.06 37.6984 117.599 37.8807C117.139 38.0597 116.612 38.1491 116.018 38.1491ZM122.736 33.5256V38H120.936V30.3636H122.657V31.6612H122.746C122.922 31.2337 123.202 30.8939 123.586 30.642C123.974 30.3902 124.453 30.2642 125.023 30.2642C125.55 30.2642 126.009 30.3769 126.4 30.6023C126.795 30.8277 127.1 31.1541 127.315 31.5817C127.534 32.0092 127.641 32.5279 127.638 33.1378V38H125.838V33.4162C125.838 32.9058 125.706 32.5064 125.441 32.218C125.179 31.9297 124.816 31.7855 124.352 31.7855C124.037 31.7855 123.757 31.8551 123.512 31.9943C123.27 32.1302 123.079 32.3274 122.94 32.5859C122.804 32.8445 122.736 33.1577 122.736 33.5256ZM133.281 30.3636V31.7557H128.891V30.3636H133.281ZM129.975 28.5341H131.775V35.7031C131.775 35.9451 131.811 36.1307 131.884 36.2599C131.96 36.3859 132.06 36.4721 132.182 36.5185C132.305 36.5649 132.441 36.5881 132.59 36.5881C132.703 36.5881 132.805 36.5798 132.898 36.5632C132.994 36.5466 133.067 36.5317 133.117 36.5185L133.42 37.9254C133.324 37.9586 133.186 37.995 133.007 38.0348C132.832 38.0746 132.616 38.0978 132.361 38.1044C131.91 38.1177 131.504 38.0497 131.143 37.9006C130.782 37.7481 130.495 37.5128 130.283 37.1946C130.074 36.8764 129.971 36.4787 129.975 36.0014V28.5341Z" fill="white"/>
<defs>
<filter id="filter0_d_6_1933" x="0" y="0" width="168" height="68" filterUnits="userSpaceOnUse" color-interpolation-filters="sRGB">
<feFlood flood-opacity="0" result="BackgroundImageFix"/>
<feColorMatrix in="SourceAlpha" type="matrix" values="0 0 0 0 0 0 0 0 0 0 0 0 0 0 0 0 0 0 127 0" result="hardAlpha"/>
<feOffset dx="1" dy="1"/>
<feGaussianBlur stdDeviation="8"/>
<feComposite in2="hardAlpha" operator="out"/>
<feColorMatrix type="matrix" values="0 0 0 0 0 0 0 0 0 0 0 0 0 0 0 0 0 0 0.08 0"/>
<feBlend mode="normal" in2="BackgroundImageFix" result="effect1_dropShadow_6_1933"/>
<feBlend mode="normal" in="SourceGraphic" in2="effect1_dropShadow_6_1933" result="shape"/>
</filter>
</defs>
</svg>
