<svg width="36" height="36" viewBox="0 0 36 36" fill="none" xmlns="http://www.w3.org/2000/svg">
<rect x="0.5" y="0.5" width="35" height="35" rx="3.5" fill="white" stroke="#EAEAEA"/>
<path d="M13.8333 8H11.3333C10.4493 8 9.60143 8.34829 8.97631 8.96824C8.35119 9.5882 8 10.429 8 11.3058V13.7851C8 14.6619 8.35119 15.5027 8.97631 16.1227C9.60143 16.7426 10.4493 17.0909 11.3333 17.0909H13.8333C14.7174 17.0909 15.5652 16.7426 16.1904 16.1227C16.8155 15.5027 17.1667 14.6619 17.1667 13.7851V11.3058C17.1667 10.429 16.8155 9.5882 16.1904 8.96824C15.5652 8.34829 14.7174 8 13.8333 8ZM15.5 13.7851C15.5 14.2235 15.3244 14.6439 15.0118 14.9539C14.6993 15.2639 14.2754 15.438 13.8333 15.438H11.3333C10.8913 15.438 10.4674 15.2639 10.1548 14.9539C9.84226 14.6439 9.66667 14.2235 9.66667 13.7851V11.3058C9.66667 10.8674 9.84226 10.447 10.1548 10.137C10.4674 9.82704 10.8913 9.65289 11.3333 9.65289H13.8333C14.2754 9.65289 14.6993 9.82704 15.0118 10.137C15.3244 10.447 15.5 10.8674 15.5 11.3058V13.7851Z" fill="black"/>
<path d="M24.6673 8H22.1673C21.2833 8 20.4354 8.34829 19.8103 8.96824C19.1852 9.5882 18.834 10.429 18.834 11.3058V13.7851C18.834 14.6619 19.1852 15.5027 19.8103 16.1227C20.4354 16.7426 21.2833 17.0909 22.1673 17.0909H24.6673C25.5514 17.0909 26.3992 16.7426 27.0243 16.1227C27.6495 15.5027 28.0007 14.6619 28.0007 13.7851V11.3058C28.0007 10.429 27.6495 9.5882 27.0243 8.96824C26.3992 8.34829 25.5514 8 24.6673 8ZM26.334 13.7851C26.334 14.2235 26.1584 14.6439 25.8458 14.9539C25.5333 15.2639 25.1093 15.438 24.6673 15.438H22.1673C21.7253 15.438 21.3014 15.2639 20.9888 14.9539C20.6762 14.6439 20.5007 14.2235 20.5007 13.7851V11.3058C20.5007 10.8674 20.6762 10.447 20.9888 10.137C21.3014 9.82704 21.7253 9.65289 22.1673 9.65289H24.6673C25.1093 9.65289 25.5333 9.82704 25.8458 10.137C26.1584 10.447 26.334 10.8674 26.334 11.3058V13.7851Z" fill="black"/>
<path d="M13.8333 18.744H11.3333C10.4493 18.744 9.60143 19.0922 8.97631 19.7122C8.35119 20.3322 8 21.173 8 22.0497V24.5291C8 25.4058 8.35119 26.2467 8.97631 26.8666C9.60143 27.4866 10.4493 27.8349 11.3333 27.8349H13.8333C14.7174 27.8349 15.5652 27.4866 16.1904 26.8666C16.8155 26.2467 17.1667 25.4058 17.1667 24.5291V22.0497C17.1667 21.173 16.8155 20.3322 16.1904 19.7122C15.5652 19.0922 14.7174 18.744 13.8333 18.744ZM15.5 24.5291C15.5 24.9675 15.3244 25.3879 15.0118 25.6979C14.6993 26.0078 14.2754 26.182 13.8333 26.182H11.3333C10.8913 26.182 10.4674 26.0078 10.1548 25.6979C9.84226 25.3879 9.66667 24.9675 9.66667 24.5291V22.0497C9.66667 21.6114 9.84226 21.1909 10.1548 20.881C10.4674 20.571 10.8913 20.3969 11.3333 20.3969H13.8333C14.2754 20.3969 14.6993 20.571 15.0118 20.881C15.3244 21.1909 15.5 21.6114 15.5 22.0497V24.5291Z" fill="black"/>
<path d="M24.6673 18.9091H22.1673C21.2833 18.9091 20.4354 19.2574 19.8103 19.8774C19.1852 20.4973 18.834 21.3382 18.834 22.2149V24.6942C18.834 25.571 19.1852 26.4118 19.8103 27.0318C20.4354 27.6517 21.2833 28 22.1673 28H24.6673C25.5514 28 26.3992 27.6517 27.0243 27.0318C27.6495 26.4118 28.0007 25.571 28.0007 24.6942V22.2149C28.0007 21.3382 27.6495 20.4973 27.0243 19.8774C26.3992 19.2574 25.5514 18.9091 24.6673 18.9091ZM26.334 24.6942C26.334 25.1326 26.1584 25.553 25.8458 25.863C25.5333 26.173 25.1093 26.3471 24.6673 26.3471H22.1673C21.7253 26.3471 21.3014 26.173 20.9888 25.863C20.6762 25.553 20.5007 25.1326 20.5007 24.6942V22.2149C20.5007 21.7765 20.6762 21.3561 20.9888 21.0461C21.3014 20.7362 21.7253 20.562 22.1673 20.562H24.6673C25.1093 20.562 25.5333 20.7362 25.8458 21.0461C26.1584 21.3561 26.334 21.7765 26.334 22.2149V24.6942Z" fill="black"/>
</svg>
