<svg width="102" height="40" viewBox="0 0 102 40" fill="none" xmlns="http://www.w3.org/2000/svg">
<path d="M72.7419 29.4624H73.2795C74.1756 29.9283 75.2509 30.3763 76.5053 30.8065C77.7598 31.2366 79.1218 31.595 80.5914 31.8817C82.0967 32.1326 83.6021 32.2581 85.1075 32.2581C86.6846 32.2581 87.9928 32.1505 89.0322 31.9355C90.1075 31.7204 90.9139 31.3799 91.4516 30.914C92.0251 30.4122 92.3118 29.7491 92.3118 28.9247C92.3118 27.8853 91.9534 27.1147 91.2365 26.6129C90.5555 26.1111 89.319 25.7168 87.5268 25.4301L83.9785 24.8925C81.3261 24.4982 79.0681 23.8172 77.2043 22.8495C75.3763 21.8817 73.9964 20.6093 73.0645 19.0323C72.1326 17.4194 71.6666 15.4839 71.6666 13.2258C71.6666 10.466 72.3118 8.10036 73.6021 6.12903C74.9283 4.15771 76.9354 2.65233 79.6236 1.6129C82.3118 0.537635 85.7526 0 89.9462 0C91.81 0 93.6021 0.16129 95.3225 0.483871C97.043 0.77061 98.4767 1.16488 99.6236 1.66667V9.78495H99.0322C97.957 9.28316 96.577 8.81721 94.8924 8.3871C93.2078 7.95699 91.3261 7.74194 89.2473 7.74194C87.4552 7.74194 85.9319 7.92115 84.6774 8.27957C83.4587 8.63799 82.5268 9.19355 81.8817 9.94624C81.2365 10.6631 80.9139 11.5771 80.9139 12.6882C80.9139 14.1219 81.3799 15.1434 82.3118 15.7527C83.2437 16.362 84.7491 16.8459 86.8279 17.2043L90.215 17.7419C92.3297 18.0645 94.2473 18.638 95.9677 19.4624C97.724 20.2867 99.1039 21.4337 100.107 22.9032C101.147 24.3728 101.667 26.3082 101.667 28.7097C101.667 30.7527 101.237 32.509 100.376 33.9785C99.5161 35.4122 98.3154 36.5771 96.7742 37.4731C95.2688 38.3333 93.5125 38.9606 91.5053 39.3548C89.534 39.7849 87.4014 40 85.1075 40C83.4946 40 81.8996 39.8925 80.3225 39.6774C78.7813 39.4982 77.3476 39.2473 76.0215 38.9247C74.6953 38.6021 73.6021 38.2617 72.7419 37.9032V29.4624Z" fill="#882EFD"/>
<path d="M37.5195 0.645508H69.5625V8.92508H58.2722V39.3552H48.756V8.92508H37.5195V0.645508Z" fill="#882EFD"/>
<path d="M0 39.3554L4.30108 13.979C4.76702 11.1833 5.51971 8.88941 6.55914 7.0973C7.59857 5.30518 8.88889 3.90733 10.4301 2.90375C12.0072 1.90016 13.853 1.20124 15.9677 0.806976C18.0824 0.412709 20.448 0.215576 23.0645 0.215576C24.5699 0.215576 26.2007 0.305182 27.957 0.484393C29.7133 0.663604 31.3082 0.9145 32.7419 1.23708L32.8495 1.88224C32.7061 2.52741 32.5986 3.38762 32.5269 4.46289C32.491 5.53816 32.4552 6.63135 32.4194 7.74246C32.4194 8.85357 32.4194 9.76755 32.4194 10.4844V39.3554H22.9032V11.4521C22.9032 10.4127 22.9391 9.46289 23.0107 8.60267C23.1183 7.70662 23.2437 6.90016 23.3871 6.18332L24.6237 8.49515C24.2294 8.38762 23.6918 8.31594 23.0107 8.28009C22.3656 8.20841 21.7563 8.17256 21.1828 8.17256C19.4982 8.17256 18.1541 8.40554 17.1505 8.87149C16.147 9.3016 15.3763 9.96468 14.8387 10.8607C14.3369 11.7568 13.9606 12.9037 13.7097 14.3016L9.56989 39.3554H0ZM6.88172 29.4629V21.8285H27.3118V29.4629H6.88172Z" fill="#882EFD"/>
</svg>
