<svg width="24" height="24" viewBox="0 0 24 24" fill="none" xmlns="http://www.w3.org/2000/svg">
<mask id="mask0_6_3339" style="mask-type:alpha" maskUnits="userSpaceOnUse" x="0" y="0" width="24" height="24">
<rect width="24" height="24" fill="#D9D9D9"/>
</mask>
<g mask="url(#mask0_6_3339)">
<path d="M8.52667 15.4738C8.335 15.2821 8.155 15.0721 7.9925 14.8504C7.72167 14.4787 7.80333 13.9571 8.17583 13.6862C8.5475 13.4154 9.06833 13.4971 9.34 13.8687C9.4475 14.0171 9.56833 14.1596 9.70417 14.2946C10.3733 14.9637 11.2625 15.3321 12.2083 15.3321C13.1542 15.3321 14.0442 14.9637 14.7125 14.2946L19.2958 9.71125C20.6767 8.33042 20.6767 6.08292 19.2958 4.70208C17.915 3.32125 15.6675 3.32125 14.2867 4.70208L13.405 5.58375C13.0792 5.90958 12.5525 5.90958 12.2267 5.58375C11.9008 5.25792 11.9008 4.73125 12.2267 4.40542L13.1083 3.52375C15.1392 1.49208 18.4433 1.49208 20.4742 3.52375C22.505 5.55458 22.505 8.85875 20.4742 10.8896L15.8908 15.4729C14.9075 16.4571 13.5992 16.9988 12.2083 16.9988C10.8175 16.9988 9.50917 16.4571 8.52667 15.4738ZM7.20833 21.9988C8.6 21.9988 9.9075 21.4571 10.8908 20.4729L11.7725 19.5912C12.0983 19.2663 12.0983 18.7388 11.7725 18.4129C11.4475 18.0871 10.92 18.0879 10.5942 18.4129L9.71167 19.2946C9.0425 19.9637 8.15333 20.3321 7.2075 20.3321C6.26167 20.3321 5.3725 19.9637 4.70333 19.2946C4.03417 18.6254 3.66583 17.7362 3.66583 16.7904C3.66583 15.8446 4.03417 14.9546 4.70333 14.2862L9.28667 9.70292C9.95583 9.03375 10.845 8.66542 11.7908 8.66542C12.7367 8.66542 13.6267 9.03375 14.295 9.70292C14.4283 9.83708 14.55 9.97958 14.6583 10.1279C14.9283 10.5004 15.4492 10.5837 15.8225 10.3121C16.195 10.0412 16.2775 9.52042 16.0067 9.14792C15.8483 8.92958 15.6692 8.72042 15.4742 8.52542C14.49 7.54042 13.1817 6.99875 11.7908 6.99875C10.4 6.99875 9.09167 7.54042 8.10833 8.52458L3.52583 13.1079C2.54167 14.0912 2 15.3996 2 16.7904C2 18.1812 2.54167 19.4896 3.52583 20.4729C4.50917 21.4571 5.81667 21.9988 7.20833 21.9988Z" fill="black"/>
</g>
</svg>
