<svg width="40" height="40" viewBox="0 0 40 40" fill="none" xmlns="http://www.w3.org/2000/svg">
<g clip-path="url(#clip0_2761_3792)">
<rect width="40" height="40" fill="#E9E9ED"/>
<path d="M19.1581 29.9997C16.7292 29.9997 14.3998 29.034 12.6823 27.315C10.9649 25.596 10 23.2646 10 20.8336C10 18.4026 10.9649 16.0712 12.6823 14.3522C14.3998 12.6332 16.7292 11.6675 19.1581 11.6675H19.9929L20.0038 12.503L19.9929 19.998H28.3161V20.8336C28.3135 23.2638 27.3478 25.5937 25.6309 27.3121C23.914 29.0305 21.5861 29.997 19.1581 29.9997ZM18.3333 13.3846C16.9316 13.5402 15.6022 14.0888 14.4984 14.9673C13.3945 15.8458 12.5609 17.0184 12.0935 18.3502C11.6262 19.6819 11.5441 21.1187 11.8567 22.4952C12.1693 23.8716 12.8639 25.1317 13.8605 26.1304C14.8571 27.1291 16.1153 27.8259 17.4901 28.1404C18.865 28.4549 20.3006 28.3745 21.6318 27.9084C22.963 27.4422 24.1356 26.6093 25.0146 25.5055C25.8937 24.4017 26.4434 23.0719 26.6006 21.6692H18.3232L18.3333 13.3846Z" fill="#1C1C1C"/>
<path d="M23.3481 11.8834C24.4949 12.1836 25.5411 12.784 26.3794 13.6227C27.2177 14.4615 27.8179 15.5084 28.1183 16.6561H23.3481V11.8834ZM21.6785 10V18.3272H30C29.9893 16.1217 29.109 14.0097 27.5507 12.4503C25.9924 10.8909 23.882 10.0103 21.6785 10Z" fill="#1C1C1C"/>
</g>
<defs>
<clipPath id="clip0_2761_3792">
<rect width="40" height="40" rx="4" fill="white"/>
</clipPath>
</defs>
</svg>
