<svg width="40" height="40" viewBox="0 0 40 40" fill="none" xmlns="http://www.w3.org/2000/svg">
<mask id="mask0_174_334" style="mask-type:alpha" maskUnits="userSpaceOnUse" x="0" y="0" width="40" height="40">
<rect width="40" height="40" fill="#D9D9D9"/>
</mask>
<g mask="url(#mask0_174_334)">
<path d="M30 12.2857C30 12.9971 29.4463 13.5714 28.7603 13.5714H11.2397C10.5537 13.5714 10 12.9971 10 12.2857C10 11.5743 10.5537 11 11.2397 11H28.7603C29.4463 11 30 11.5743 30 12.2857ZM15.5372 26.4286H11.2397C10.5537 26.4286 10 27.0029 10 27.7143C10 28.4257 10.5537 29 11.2397 29H15.5372C16.2231 29 16.7769 28.4257 16.7769 27.7143C16.7769 27.0029 16.2231 26.4286 15.5372 26.4286ZM22.1488 18.7143H11.2397C10.5537 18.7143 10 19.2886 10 20C10 20.7114 10.5537 21.2857 11.2397 21.2857H22.1488C22.8347 21.2857 23.3884 20.7114 23.3884 20C23.3884 19.2886 22.8347 18.7143 22.1488 18.7143Z" fill="black"/>
</g>
</svg>
