<svg width="24" height="24" viewBox="0 0 24 24" fill="none" xmlns="http://www.w3.org/2000/svg">
<mask id="mask0_6_3162" style="mask-type:alpha" maskUnits="userSpaceOnUse" x="0" y="0" width="24" height="24">
<rect width="24" height="24" fill="#D9D9D9"/>
</mask>
<g mask="url(#mask0_6_3162)">
<path d="M21 12C21 16.9706 16.9706 21 12 21C7.02944 21 3 16.9706 3 12C3 7.02944 7.02944 3 12 3C16.9706 3 21 7.02944 21 12Z" fill="white"/>
<path fill-rule="evenodd" clip-rule="evenodd" d="M12 19.65C16.225 19.65 19.65 16.225 19.65 12C19.65 7.77502 16.225 4.35 12 4.35C7.77502 4.35 4.35 7.77502 4.35 12C4.35 16.225 7.77502 19.65 12 19.65ZM12 21C16.9706 21 21 16.9706 21 12C21 7.02944 16.9706 3 12 3C7.02944 3 3 7.02944 3 12C3 16.9706 7.02944 21 12 21Z" fill="#00B656"/>
<circle cx="11.9999" cy="11.9998" r="5.85" fill="#00B656"/>
</g>
</svg>
