<svg width="28" height="28" viewBox="0 0 28 28" fill="none" xmlns="http://www.w3.org/2000/svg">
<circle cx="14" cy="14" r="14" transform="matrix(-1 0 0 1 28 0)" fill="white"/>
<circle cx="14" cy="14" r="13.5" transform="matrix(-1 0 0 1 28 0)" stroke="#1C1C1C" stroke-opacity="0.4"/>
<mask id="path-3-inside-1_1233_16466" fill="white">
<path d="M11.4368 11.9632L15.0068 8.39316C15.1525 8.2483 15.3496 8.16699 15.5551 8.16699C15.7606 8.16699 15.9577 8.2483 16.1034 8.39316C16.1763 8.46547 16.2342 8.55149 16.2737 8.64627C16.3132 8.74105 16.3335 8.84271 16.3335 8.94539C16.3335 9.04806 16.3132 9.14972 16.2737 9.2445C16.2342 9.33928 16.1763 9.4253 16.1034 9.49761L12.5257 13.0598C12.4528 13.1321 12.3949 13.2182 12.3554 13.3129C12.3159 13.4077 12.2956 13.5094 12.2956 13.6121C12.2956 13.7147 12.3159 13.8164 12.3554 13.9112C12.3949 14.0059 12.4528 14.092 12.5257 14.1643L16.1034 17.7265C16.2499 17.8719 16.3326 18.0696 16.3333 18.276C16.334 18.4824 16.2527 18.6806 16.1073 18.8271C15.9619 18.9735 15.7642 19.0562 15.5578 19.0569C15.3515 19.0577 15.1532 18.9764 15.0068 18.8309L11.4368 15.2609C10.9998 14.8234 10.7544 14.2304 10.7544 13.6121C10.7544 12.9937 10.9998 12.4007 11.4368 11.9632Z"/>
</mask>
<path d="M11.4368 11.9632L15.0068 8.39316C15.1525 8.2483 15.3496 8.16699 15.5551 8.16699C15.7606 8.16699 15.9577 8.2483 16.1034 8.39316C16.1763 8.46547 16.2342 8.55149 16.2737 8.64627C16.3132 8.74105 16.3335 8.84271 16.3335 8.94539C16.3335 9.04806 16.3132 9.14972 16.2737 9.2445C16.2342 9.33928 16.1763 9.4253 16.1034 9.49761L12.5257 13.0598C12.4528 13.1321 12.3949 13.2182 12.3554 13.3129C12.3159 13.4077 12.2956 13.5094 12.2956 13.6121C12.2956 13.7147 12.3159 13.8164 12.3554 13.9112C12.3949 14.0059 12.4528 14.092 12.5257 14.1643L16.1034 17.7265C16.2499 17.8719 16.3326 18.0696 16.3333 18.276C16.334 18.4824 16.2527 18.6806 16.1073 18.8271C15.9619 18.9735 15.7642 19.0562 15.5578 19.0569C15.3515 19.0577 15.1532 18.9764 15.0068 18.8309L11.4368 15.2609C10.9998 14.8234 10.7544 14.2304 10.7544 13.6121C10.7544 12.9937 10.9998 12.4007 11.4368 11.9632Z" fill="#1C1C1C" fill-opacity="0.4"/>
<path d="M11.4368 11.9632L-3.65757 -3.11239L-3.64818 -3.12178L11.4368 11.9632ZM15.0068 8.39316L-0.0781841 -6.69178L-0.0557442 -6.71422L-0.0332375 -6.73659L15.0068 8.39316ZM15.5551 8.16699V-13.1663V8.16699ZM16.1034 8.39316L1.08046 23.5398L1.07194 23.5314L1.06343 23.5229L16.1034 8.39316ZM16.1034 9.49761L1.05139 -5.62017L1.06591 -5.63463L1.08046 -5.64906L16.1034 9.49761ZM12.5257 13.0598L27.5777 28.1776L27.5632 28.1921L27.5486 28.2065L12.5257 13.0598ZM12.2956 13.6121H33.6289H12.2956ZM12.5257 14.1643L27.5486 -0.98239L27.5632 -0.967958L27.5777 -0.953497L12.5257 14.1643ZM16.1034 17.7265L1.07188 32.8647L1.06163 32.8545L1.05138 32.8443L16.1034 17.7265ZM15.0068 18.8309L-0.0247841 33.9691L-0.0515308 33.9425L-0.0781822 33.9159L15.0068 18.8309ZM11.4368 15.2609L-3.64818 30.3459L-3.65756 30.3365L11.4368 15.2609ZM-3.64818 -3.12178L-0.0781841 -6.69178L30.0917 23.4781L26.5217 27.0481L-3.64818 -3.12178ZM-0.0332375 -6.73659C4.10958 -10.8548 9.71369 -13.1663 15.5551 -13.1663V29.5003C20.9855 29.5003 26.1954 27.3514 30.0468 23.5229L-0.0332375 -6.73659ZM15.5551 -13.1663C21.3965 -13.1663 27.0006 -10.8548 31.1434 -6.73659L1.06343 23.5229C4.91478 27.3514 10.1246 29.5003 15.5551 29.5003V-13.1663ZM31.1264 -6.7535C33.1989 -4.69798 34.8438 -2.25246 35.9663 0.441971L-3.41897 16.8506C-2.3754 19.3554 -0.846189 21.6289 1.08046 23.5398L31.1264 -6.7535ZM35.9663 0.441971C37.0889 3.13639 37.6668 6.02644 37.6668 8.94539H-4.99984C-4.99984 11.659 -4.46254 14.3457 -3.41897 16.8506L35.9663 0.441971ZM37.6668 8.94539C37.6668 11.8643 37.0889 14.7544 35.9663 17.4488L-3.41897 1.0402C-4.46254 3.54507 -4.99984 6.23179 -4.99984 8.94539H37.6668ZM35.9663 17.4488C34.8438 20.1432 33.1989 22.5888 31.1264 24.6443L1.08046 -5.64906C-0.846189 -3.73814 -2.3754 -1.46467 -3.41897 1.0402L35.9663 17.4488ZM31.1555 24.6154L27.5777 28.1776L-2.52639 -2.05794L1.05139 -5.62017L31.1555 24.6154ZM27.5486 28.2065C29.4753 26.2956 31.0045 24.0221 32.0481 21.5172L-7.33725 5.10864C-6.2147 2.41421 -4.56977 -0.031311 -2.49732 -2.08683L27.5486 28.2065ZM32.0481 21.5172C33.0916 19.0124 33.6289 16.3257 33.6289 13.6121H-9.03775C-9.03775 10.6931 -8.45979 7.80306 -7.33725 5.10864L32.0481 21.5172ZM33.6289 13.6121C33.6289 10.8985 33.0916 8.21173 32.0481 5.70687L-7.33725 22.1155C-8.45979 19.421 -9.03775 16.531 -9.03775 13.6121H33.6289ZM32.0481 5.70687C31.0045 3.202 29.4753 0.928524 27.5486 -0.98239L-2.49732 29.3109C-4.56977 27.2554 -6.2147 24.8099 -7.33725 22.1155L32.0481 5.70687ZM27.5777 -0.953497L31.1555 2.60873L1.05138 32.8443L-2.52639 29.282L27.5777 -0.953497ZM31.135 2.58834C35.2963 6.72036 37.6458 12.3362 37.6665 18.2006L-4.99989 18.3514C-4.98063 23.8029 -2.79652 29.0235 1.07188 32.8647L31.135 2.58834ZM37.6665 18.2006C37.6872 24.0649 35.3775 29.6973 31.2455 33.8586L0.969164 3.79551C-2.872 7.66391 -5.01916 12.8998 -4.99989 18.3514L37.6665 18.2006ZM31.2455 33.8586C27.1135 38.0199 21.4976 40.3694 15.6332 40.3901L15.4825 -2.27627C10.0309 -2.25701 4.81031 -0.0728779 0.969164 3.79551L31.2455 33.8586ZM15.6332 40.3901C9.76884 40.4109 4.1365 38.1011 -0.0247841 33.9691L30.0383 3.69279C26.1699 -0.148341 20.9341 -2.29553 15.4825 -2.27627L15.6332 40.3901ZM-0.0781822 33.9159L-3.64818 30.3459L26.5217 0.175997L30.0917 3.746L-0.0781822 33.9159ZM-3.65756 30.3365C-8.08954 25.899 -10.579 19.8838 -10.579 13.6121H32.0877C32.0877 8.57701 30.0892 3.74788 26.5311 0.185387L-3.65756 30.3365ZM-10.579 13.6121C-10.579 7.34034 -8.08954 1.3251 -3.65756 -3.11239L26.5311 27.0387C30.0892 23.4762 32.0877 18.6471 32.0877 13.6121H-10.579Z" fill="#1C1C1C" fill-opacity="0.4" mask="url(#path-3-inside-1_1233_16466)"/>
</svg>
