<svg width="22" height="20" viewBox="0 0 22 20" fill="none" xmlns="http://www.w3.org/2000/svg">
<path d="M14.5887 0.571411C14.3722 0.571411 14.1646 0.657397 14.0116 0.810454C13.8585 0.96351 13.7725 1.1711 13.7725 1.38755C13.7725 3.79436 11.6644 3.92666 9.69181 3.92666H3.97882C3.113 3.92666 2.28264 4.27061 1.67042 4.88283C1.05819 5.49506 0.714249 6.32541 0.714249 7.19123L0.714249 8.82352C0.716031 9.31217 0.828069 9.79412 1.04201 10.2335C1.25596 10.6728 1.56629 11.0582 1.94989 11.3609L4.86515 17.8672C5.07248 18.3333 5.41047 18.7293 5.83821 19.0072C6.26595 19.2852 6.76509 19.4332 7.27522 19.4334C7.68109 19.4331 8.08046 19.3313 8.43697 19.1373C8.79347 18.9433 9.0958 18.6632 9.31643 18.3226C9.53705 17.9819 9.66898 17.5914 9.70019 17.1868C9.7314 16.7821 9.6609 16.376 9.49512 16.0056L7.69961 12.0881H9.69181C11.6644 12.0881 13.7725 12.2204 13.7725 14.6272C13.7725 14.8436 13.8585 15.0512 14.0116 15.2043C14.1646 15.3574 14.3722 15.4433 14.5887 15.4433C14.8051 15.4433 15.0127 15.3574 15.1658 15.2043C15.3188 15.0512 15.4048 14.8436 15.4048 14.6272V1.38755C15.4048 1.1711 15.3188 0.96351 15.1658 0.810454C15.0127 0.657397 14.8051 0.571411 14.5887 0.571411ZM8.00811 16.674C8.06217 16.7961 8.08491 16.9297 8.07426 17.0628C8.06361 17.1959 8.01991 17.3242 7.94712 17.4362C7.87434 17.5481 7.77477 17.6401 7.65744 17.7038C7.54011 17.7675 7.40873 17.801 7.27522 17.8011C7.08048 17.8009 6.88997 17.7443 6.72684 17.6379C6.5637 17.5316 6.43496 17.3802 6.35624 17.202L4.06451 12.0881H5.9041L8.00811 16.674ZM13.7725 11.7616C12.6065 10.8632 11.1628 10.4012 9.69181 10.4558H3.97882C3.54591 10.4558 3.13073 10.2838 2.82462 9.97772C2.51851 9.6716 2.34653 9.25642 2.34653 8.82352V7.19123C2.34653 6.75832 2.51851 6.34314 2.82462 6.03703C3.13073 5.73092 3.54591 5.55895 3.97882 5.55895H9.69181C11.1623 5.61469 12.6059 5.15416 13.7725 4.2572V11.7616ZM21.1996 12.457C21.1518 12.5529 21.0855 12.6385 21.0045 12.7088C20.9235 12.7791 20.8295 12.8328 20.7278 12.8668C20.6261 12.9007 20.5187 12.9143 20.4117 12.9067C20.3047 12.8992 20.2003 12.8706 20.1044 12.8226L18.4721 12.0065C18.2784 11.9097 18.131 11.74 18.0624 11.5346C17.9939 11.3292 18.0097 11.1049 18.1065 10.9112C18.2032 10.7175 18.373 10.5701 18.5784 10.5016C18.7838 10.433 19.008 10.4488 19.2017 10.5456L20.834 11.3617C21.0267 11.4584 21.1734 11.6274 21.2419 11.8319C21.3104 12.0364 21.2952 12.2596 21.1996 12.4529V12.457ZM18.1065 5.1117C18.0585 5.01579 18.0299 4.91136 18.0223 4.80439C18.0148 4.69743 18.0284 4.59002 18.0623 4.4883C18.0963 4.38658 18.1499 4.29256 18.2202 4.21159C18.2906 4.13063 18.3761 4.06431 18.4721 4.01644L20.1044 3.2003C20.2981 3.10354 20.5223 3.08771 20.7277 3.15628C20.9331 3.22484 21.1029 3.3722 21.1996 3.56593C21.2964 3.75965 21.3122 3.98388 21.2437 4.18928C21.1751 4.39469 21.0277 4.56444 20.834 4.66119L19.2017 5.47733C19.1058 5.52529 19.0014 5.55387 18.8944 5.56144C18.7875 5.56902 18.68 5.55544 18.5783 5.52149C18.4766 5.48753 18.3826 5.43386 18.3016 5.36355C18.2206 5.29324 18.1543 5.20766 18.1065 5.1117ZM18.0167 8.00737C18.0167 7.79092 18.1027 7.58333 18.2557 7.43027C18.4088 7.27722 18.6164 7.19123 18.8328 7.19123H20.4651C20.6816 7.19123 20.8892 7.27722 21.0422 7.43027C21.1953 7.58333 21.2813 7.79092 21.2813 8.00737C21.2813 8.22383 21.1953 8.43142 21.0422 8.58447C20.8892 8.73753 20.6816 8.82352 20.4651 8.82352H18.8328C18.6164 8.82352 18.4088 8.73753 18.2557 8.58447C18.1027 8.43142 18.0167 8.22383 18.0167 8.00737Z" fill="#1C1C1C"/>
</svg>
