<svg width="10" height="6" viewBox="0 0 10 6" fill="none" xmlns="http://www.w3.org/2000/svg">
<path d="M9.70722 0.293114C9.61436 0.200189 9.50409 0.126474 9.38272 0.0761802C9.26136 0.0258864 9.13127 0 8.9999 0C8.86853 0 8.73844 0.0258864 8.61708 0.0761802C8.49571 0.126474 8.38545 0.200189 8.29258 0.293114L5.23531 3.34972C5.1728 3.41221 5.08804 3.44731 4.99965 3.44731C4.91126 3.44731 4.8265 3.41221 4.76399 3.34972L1.70738 0.293114C1.51988 0.105521 1.26553 9.74762e-05 1.0003 3.49673e-05C0.735066 -2.75415e-05 0.480671 0.105276 0.293078 0.29278C0.105486 0.480285 6.25406e-05 0.73463 2.78168e-08 0.999864C-6.2485e-05 1.2651 0.105241 1.51949 0.292745 1.70709L3.35002 4.76436C3.56668 4.98105 3.82391 5.15294 4.10702 5.27021C4.39012 5.38748 4.69355 5.44784 4.99998 5.44784C5.30641 5.44784 5.60984 5.38748 5.89295 5.27021C6.17605 5.15294 6.43328 4.98105 6.64995 4.76436L9.70722 1.70709C9.89469 1.51956 10 1.26526 10 1.0001C10 0.734941 9.89469 0.480638 9.70722 0.293114Z" fill="#1C1C1C"/>
</svg>
