<svg width="22" height="22" viewBox="0 0 22 22" fill="none" xmlns="http://www.w3.org/2000/svg">
<circle cx="11" cy="11" r="10.2857" fill="#882EFD"/>
<path d="M15.2857 10.9999C15.2857 11.1818 15.2134 11.3562 15.0848 11.4848C14.9562 11.6134 14.7818 11.6857 14.6 11.6857H11.6857V14.5999C11.6857 14.7818 11.6134 14.9562 11.4848 15.0848C11.3562 15.2134 11.1818 15.2857 11 15.2857C10.8181 15.2857 10.6437 15.2134 10.5151 15.0848C10.3865 14.9562 10.3143 14.7818 10.3143 14.5999V11.6857H7.39997C7.21811 11.6857 7.04369 11.6134 6.9151 11.4848C6.7865 11.3562 6.71426 11.1818 6.71426 10.9999C6.71426 10.8181 6.7865 10.6437 6.9151 10.5151C7.04369 10.3865 7.21811 10.3142 7.39997 10.3142H10.3143V7.39995C10.3143 7.21808 10.3865 7.04367 10.5151 6.91507C10.6437 6.78648 10.8181 6.71423 11 6.71423C11.1818 6.71423 11.3562 6.78648 11.4848 6.91507C11.6134 7.04367 11.6857 7.21808 11.6857 7.39995V10.3142H14.6C14.7818 10.3142 14.9562 10.3865 15.0848 10.5151C15.2134 10.6437 15.2857 10.8181 15.2857 10.9999Z" fill="white"/>
</svg>
