<svg width="22" height="22" viewBox="0 0 22 22" fill="none" xmlns="http://www.w3.org/2000/svg">
<path d="M11.0001 0.714294C8.96575 0.714294 6.97711 1.31754 5.28563 2.44775C3.59416 3.57796 2.27581 5.18437 1.49731 7.06384C0.718808 8.9433 0.515117 11.0114 0.911993 13.0066C1.30887 15.0019 2.28849 16.8346 3.72697 18.2731C5.16545 19.7116 6.99819 20.6912 8.99343 21.0881C10.9887 21.485 13.0568 21.2813 14.9362 20.5028C16.8157 19.7243 18.4221 18.4059 19.5523 16.7144C20.6825 15.023 21.2858 13.0343 21.2858 11C21.2828 8.27297 20.1982 5.65847 18.2699 3.73017C16.3416 1.80186 13.7271 0.717244 11.0001 0.714294ZM11.0001 19.5714C9.3048 19.5714 7.6476 19.0687 6.23804 18.1269C4.82847 17.185 3.72985 15.8464 3.0811 14.2802C2.43235 12.7139 2.26261 10.9905 2.59334 9.3278C2.92407 7.66511 3.74042 6.13783 4.93915 4.93909C6.13789 3.74036 7.66517 2.92401 9.32787 2.59328C10.9906 2.26255 12.714 2.43229 14.2802 3.08104C15.8464 3.72979 17.1851 4.82841 18.1269 6.23798C19.0688 7.64754 19.5715 9.30474 19.5715 11C19.569 13.2725 18.6651 15.4513 17.0582 17.0582C15.4513 18.6651 13.2726 19.5689 11.0001 19.5714Z" fill="#1C1C1C"/>
<path d="M11.6149 5.054C11.1206 4.96394 10.6126 4.98362 10.1267 5.11164C9.64087 5.23966 9.1891 5.47289 8.80337 5.79484C8.41765 6.11678 8.10739 6.51957 7.89456 6.97469C7.68173 7.42981 7.57153 7.92615 7.57175 8.42858C7.57175 8.6559 7.66206 8.87392 7.8228 9.03467C7.98355 9.19541 8.20157 9.28572 8.42889 9.28572C8.65622 9.28572 8.87424 9.19541 9.03498 9.03467C9.19573 8.87392 9.28604 8.6559 9.28604 8.42858C9.28582 8.17638 9.34125 7.92725 9.44837 7.69894C9.55549 7.47063 9.71167 7.26877 9.90577 7.10774C10.0999 6.94672 10.3271 6.83051 10.5713 6.76739C10.8154 6.70427 11.0705 6.69579 11.3183 6.74258C11.6569 6.80831 11.9683 6.97348 12.2125 7.217C12.4568 7.46051 12.623 7.77132 12.6897 8.10972C12.7572 8.46492 12.7106 8.83236 12.5567 9.15949C12.4027 9.48663 12.1493 9.75672 11.8326 9.93115C11.3082 10.235 10.8748 10.6739 10.5777 11.2021C10.2805 11.7304 10.1305 12.3286 10.1432 12.9346V13.5714C10.1432 13.7988 10.2335 14.0168 10.3942 14.1775C10.555 14.3383 10.773 14.4286 11.0003 14.4286C11.2276 14.4286 11.4457 14.3383 11.6064 14.1775C11.7672 14.0168 11.8575 13.7988 11.8575 13.5714V12.9346C11.8467 12.6363 11.9147 12.3405 12.0547 12.0768C12.1946 11.8132 12.4015 11.5911 12.6546 11.4329C13.2756 11.0918 13.7757 10.5667 14.0861 9.92978C14.3965 9.29288 14.502 8.57545 14.388 7.87617C14.274 7.17688 13.9462 6.53008 13.4496 6.02471C12.953 5.51935 12.3121 5.18023 11.6149 5.054Z" fill="#1C1C1C"/>
<path d="M11.8573 16.1432C11.8573 15.6698 11.4736 15.2861 11.0002 15.2861C10.5268 15.2861 10.143 15.6698 10.143 16.1432C10.143 16.6166 10.5268 17.0004 11.0002 17.0004C11.4736 17.0004 11.8573 16.6166 11.8573 16.1432Z" fill="#1C1C1C"/>
</svg>
