<svg width="19" height="22" viewBox="0 0 19 22" fill="none" xmlns="http://www.w3.org/2000/svg">
<path d="M18.0842 12.4213L16.5415 6.56254C16.0894 4.84617 15.1066 3.33859 13.7496 2.27944C12.3925 1.22029 10.7389 0.670348 9.05179 0.71704C7.36463 0.763732 5.74067 1.40437 4.43804 2.53713C3.13541 3.66989 2.22887 5.22975 1.86252 6.96878L0.668164 12.6381C0.536237 13.2646 0.539287 13.9143 0.67709 14.5393C0.814892 15.1644 1.08393 15.7487 1.46433 16.2493C1.84474 16.7499 2.32681 17.1539 2.87494 17.4315C3.42307 17.7092 4.02327 17.8533 4.63123 17.8532H5.53573C5.72208 18.822 6.21997 19.6929 6.94504 20.3184C7.67011 20.944 8.57777 21.2857 9.51422 21.2857C10.4507 21.2857 11.3583 20.944 12.0834 20.3184C12.8085 19.6929 13.3064 18.822 13.4927 17.8532H14.1731C14.799 17.8533 15.4163 17.7006 15.977 17.4071C16.5377 17.1136 17.0265 16.6872 17.4053 16.1613C17.784 15.6354 18.0425 15.0242 18.1604 14.3754C18.2783 13.7266 18.2517 13.0578 18.0842 12.4213ZM9.51422 19.5673C9.01223 19.5651 8.52314 19.3993 8.11387 19.0925C7.7046 18.7856 7.39513 18.3528 7.2278 17.8532H11.8006C11.6333 18.3528 11.3238 18.7856 10.9146 19.0925C10.5053 19.3993 10.0162 19.5651 9.51422 19.5673ZM16.112 15.1236C15.8858 15.4404 15.5926 15.6971 15.2559 15.8734C14.9192 16.0497 14.5482 16.1407 14.1723 16.1392H4.63123C4.26649 16.1391 3.90643 16.0526 3.57761 15.886C3.24879 15.7194 2.95962 15.477 2.73143 15.1766C2.50324 14.8763 2.34186 14.5257 2.2592 14.1507C2.17655 13.7757 2.17473 13.3859 2.25388 13.0101L3.44742 7.33988C3.73514 5.97393 4.44717 4.7487 5.47033 3.85895C6.49349 2.96921 7.76906 2.46602 9.09426 2.42937C10.4195 2.39272 11.7182 2.82473 12.7841 3.65671C13.85 4.48868 14.6219 5.67288 14.9769 7.02106L16.5196 12.8798C16.6215 13.2615 16.6378 13.6631 16.567 14.0525C16.4963 14.442 16.3405 14.8087 16.112 15.1236Z" fill="#1C1C1C"/>
</svg>
