<svg width="24" height="24" viewBox="0 0 24 24" fill="none" xmlns="http://www.w3.org/2000/svg">
<mask id="mask0_174_109" style="mask-type:alpha" maskUnits="userSpaceOnUse" x="0" y="0" width="24" height="24">
<rect width="24" height="24" fill="#D9D9D9"/>
</mask>
<g mask="url(#mask0_174_109)">
<path d="M11.9608 3.42882C13.0978 3.43255 14.2228 3.66174 15.2707 4.10312C16.3185 4.5445 17.2684 5.18932 18.0654 6.00025H15.3894C15.1621 6.00025 14.9441 6.09055 14.7833 6.2513C14.6226 6.41204 14.5323 6.63006 14.5323 6.85739C14.5323 7.08472 14.6226 7.30273 14.7833 7.46348C14.9441 7.62423 15.1621 7.71453 15.3894 7.71453H18.9405C19.3626 7.7143 19.7674 7.54653 20.0658 7.24808C20.3643 6.94962 20.532 6.5449 20.5323 6.12282V2.57167C20.5323 2.34435 20.442 2.12633 20.2812 1.96558C20.1205 1.80484 19.9024 1.71453 19.6751 1.71453C19.4478 1.71453 19.2298 1.80484 19.069 1.96558C18.9083 2.12633 18.818 2.34435 18.818 2.57167V4.35282C17.4013 3.07692 15.6573 2.2206 13.7815 1.87974C11.9056 1.53889 9.97194 1.72697 8.19693 2.42291C6.42193 3.11886 4.8757 4.29519 3.73141 5.82018C2.58713 7.34517 1.88995 9.1586 1.71798 11.0574C1.7069 11.1768 1.72082 11.2971 1.75883 11.4108C1.79684 11.5245 1.85812 11.629 1.93876 11.7177C2.01939 11.8064 2.11762 11.8774 2.22719 11.926C2.33675 11.9746 2.45524 11.9999 2.57512 12.0002C2.78477 12.0029 2.98786 11.9273 3.14465 11.7881C3.30145 11.6489 3.40065 11.4562 3.42283 11.2477C3.61364 9.11403 4.59538 7.12885 6.17519 5.68211C7.75499 4.23537 9.81868 3.43164 11.9608 3.42882Z" fill="black"/>
<path d="M21.3474 12.0002C21.1378 11.9975 20.9347 12.0732 20.7779 12.2124C20.6211 12.3516 20.5219 12.5443 20.4997 12.7528C20.358 14.3841 19.7513 15.9406 18.7517 17.2375C17.752 18.5344 16.4013 19.5174 14.8598 20.0698C13.3183 20.6222 11.6507 20.7208 10.0548 20.354C8.45897 19.9872 7.00182 19.1702 5.85625 18.0002H8.53225C8.75958 18.0002 8.9776 17.9099 9.13835 17.7491C9.29909 17.5884 9.3894 17.3704 9.3894 17.143C9.3894 16.9157 9.29909 16.6977 9.13835 16.537C8.9776 16.3762 8.75958 16.2859 8.53225 16.2859H4.98111C4.77205 16.2858 4.56502 16.3269 4.37186 16.4068C4.17869 16.4868 4.00317 16.604 3.85535 16.7519C3.70752 16.8997 3.59028 17.0752 3.51033 17.2684C3.43038 17.4615 3.38928 17.6686 3.3894 17.8776V21.4288C3.3894 21.6561 3.4797 21.8741 3.64045 22.0349C3.80119 22.1956 4.01921 22.2859 4.24654 22.2859C4.47387 22.2859 4.69189 22.1956 4.85263 22.0349C5.01338 21.8741 5.10368 21.6561 5.10368 21.4288V19.6476C6.52039 20.9235 8.26432 21.7798 10.1402 22.1207C12.016 22.4615 13.9497 22.2735 15.7247 21.5775C17.4997 20.8816 19.046 19.7052 20.1902 18.1803C21.3345 16.6553 22.0317 14.8418 22.2037 12.943C22.2148 12.8237 22.2008 12.7033 22.1628 12.5896C22.1248 12.4759 22.0635 12.3714 21.9829 12.2827C21.9023 12.194 21.804 12.1231 21.6945 12.0744C21.5849 12.0258 21.4673 12.0005 21.3474 12.0002Z" fill="black"/>
</g>
</svg>
