<svg width="22" height="22" viewBox="0 0 22 22" fill="none" xmlns="http://www.w3.org/2000/svg">
<circle cx="11.0001" cy="11" r="10.2857" fill="#00B656"/>
<path d="M15.2858 10.9999C15.2858 11.1818 15.2135 11.3562 15.0849 11.4848C14.9563 11.6134 14.7819 11.6857 14.6001 11.6857H11.6858V14.5999C11.6858 14.7818 11.6135 14.9562 11.4849 15.0848C11.3563 15.2134 11.1819 15.2857 11.0001 15.2857C10.8182 15.2857 10.6438 15.2134 10.5152 15.0848C10.3866 14.9562 10.3144 14.7818 10.3144 14.5999V11.6857H7.40007C7.21821 11.6857 7.04379 11.6134 6.9152 11.4848C6.7866 11.3562 6.71436 11.1818 6.71436 10.9999C6.71436 10.8181 6.7866 10.6437 6.9152 10.5151C7.04379 10.3865 7.21821 10.3142 7.40007 10.3142H10.3144V7.39995C10.3144 7.21808 10.3866 7.04367 10.5152 6.91507C10.6438 6.78648 10.8182 6.71423 11.0001 6.71423C11.1819 6.71423 11.3563 6.78648 11.4849 6.91507C11.6135 7.04367 11.6858 7.21808 11.6858 7.39995V10.3142H14.6001C14.7819 10.3142 14.9563 10.3865 15.0849 10.5151C15.2135 10.6437 15.2858 10.8181 15.2858 10.9999Z" fill="white"/>
</svg>
