<svg width="28" height="28" viewBox="0 0 28 28" fill="none" xmlns="http://www.w3.org/2000/svg">
<circle cx="14" cy="14" r="13.5" fill="white" stroke="#882EFD"/>
<path d="M16.5634 11.9628L12.9934 8.39284C12.8476 8.24798 12.6505 8.16667 12.445 8.16667C12.2395 8.16667 12.0424 8.24798 11.8967 8.39284C11.8238 8.46515 11.7659 8.55117 11.7264 8.64595C11.687 8.74073 11.6666 8.84239 11.6666 8.94507C11.6666 9.04774 11.687 9.1494 11.7264 9.24418C11.7659 9.33896 11.8238 9.42498 11.8967 9.49729L15.4745 13.0595C15.5474 13.1318 15.6052 13.2178 15.6447 13.3126C15.6842 13.4074 15.7045 13.5091 15.7045 13.6117C15.7045 13.7144 15.6842 13.8161 15.6447 13.9108C15.6052 14.0056 15.5474 14.0917 15.4745 14.164L11.8967 17.7262C11.7502 17.8716 11.6675 18.0693 11.6668 18.2756C11.6661 18.482 11.7474 18.6803 11.8928 18.8267C12.0382 18.9732 12.2359 19.0559 12.4423 19.0566C12.6487 19.0573 12.8469 18.976 12.9934 18.8306L16.5634 15.2606C17.0003 14.8231 17.2457 14.2301 17.2457 13.6117C17.2457 12.9934 17.0003 12.4003 16.5634 11.9628Z" fill="#882EFD"/>
</svg>
