<svg width="28" height="28" viewBox="0 0 28 28" fill="none" xmlns="http://www.w3.org/2000/svg">
<circle cx="14" cy="14" r="13.5" fill="white" stroke="#00B656"/>
<path d="M16.5632 11.9627L12.9932 8.39268C12.8475 8.24781 12.6504 8.1665 12.4449 8.1665C12.2394 8.1665 12.0423 8.24781 11.8966 8.39268C11.8237 8.46498 11.7658 8.551 11.7263 8.64578C11.6868 8.74056 11.6665 8.84222 11.6665 8.9449C11.6665 9.04757 11.6868 9.14923 11.7263 9.24401C11.7658 9.33879 11.8237 9.42482 11.8966 9.49712L15.4743 13.0593C15.5472 13.1316 15.6051 13.2177 15.6446 13.3124C15.6841 13.4072 15.7044 13.5089 15.7044 13.6116C15.7044 13.7142 15.6841 13.8159 15.6446 13.9107C15.6051 14.0055 15.5472 14.0915 15.4743 14.1638L11.8966 17.726C11.7501 17.8714 11.6674 18.0691 11.6667 18.2755C11.666 18.4819 11.7473 18.6801 11.8927 18.8266C12.0381 18.973 12.2358 19.0557 12.4422 19.0564C12.6485 19.0572 12.8468 18.9759 12.9932 18.8305L16.5632 15.2605C17.0002 14.823 17.2456 14.2299 17.2456 13.6116C17.2456 12.9932 17.0002 12.4002 16.5632 11.9627Z" fill="#00B656"/>
</svg>
