<svg width="24" height="24" viewBox="0 0 24 24" fill="none" xmlns="http://www.w3.org/2000/svg">
<mask id="mask0_6_1702" style="mask-type:alpha" maskUnits="userSpaceOnUse" x="0" y="0" width="24" height="24">
<rect width="24" height="24" fill="#D9D9D9"/>
</mask>
<g mask="url(#mask0_6_1702)">
<path d="M21.7778 20.6813L15.8278 14.7276C17.0936 13.1795 17.7159 11.2041 17.5661 9.2101C17.4163 7.21606 16.5057 5.35588 15.0229 4.01434C13.54 2.67279 11.5982 1.95252 9.59918 2.0025C7.60014 2.05248 5.69678 2.86889 4.28281 4.28287C2.86883 5.69685 2.05242 7.6002 2.00244 9.59924C1.95246 11.5983 2.67273 13.5401 4.01427 15.0229C5.35582 16.5058 7.216 17.4163 9.21004 17.5661C11.2041 17.716 13.1794 17.0936 14.7275 15.8279L20.6774 21.7816C20.8242 21.9234 21.0208 22.0018 21.2248 22C21.4288 21.9983 21.624 21.9164 21.7683 21.7721C21.9126 21.6279 21.9944 21.4327 21.9962 21.2287C21.9979 21.0246 21.9195 20.8281 21.7778 20.6813ZM9.80645 16.0317C8.57521 16.0317 7.37163 15.6666 6.34789 14.9826C5.32416 14.2986 4.52626 13.3263 4.05508 12.1888C3.58391 11.0513 3.46063 9.7996 3.70083 8.59202C3.94103 7.38445 4.53393 6.27522 5.40454 5.4046C6.27516 4.53399 7.38439 3.94109 8.59196 3.70089C9.79954 3.46069 11.0512 3.58397 12.1887 4.05514C13.3263 4.52632 14.2985 5.32422 14.9825 6.34795C15.6666 7.37169 16.0317 8.57527 16.0317 9.80651C16.0298 11.457 15.3734 13.0393 14.2063 14.2064C13.0392 15.3734 11.4569 16.0299 9.80645 16.0317Z" fill="#1C1C1C"/>
</g>
</svg>
