<svg width="148" height="70" viewBox="0 0 148 70" fill="none" xmlns="http://www.w3.org/2000/svg">
<g filter="url(#filter0_d_1233_16546)">
<rect x="16" y="16" width="114" height="36" rx="4" fill="white"/>
<rect x="15.5" y="15.5" width="115" height="37" rx="4.5" stroke="#EAEAEA"/>
</g>
<mask id="mask0_1233_16546" style="mask-type:alpha" maskUnits="userSpaceOnUse" x="32" y="22" width="24" height="24">
<rect x="32" y="22" width="24" height="24" fill="#D9D9D9"/>
</mask>
<g mask="url(#mask0_1233_16546)">
<path d="M43.7814 38.2805C44.0747 38.5737 44.0747 39.0478 43.7814 39.3411L40.5613 42.5612C40.2688 42.8537 39.8847 43 39.5007 43C39.1167 43 38.7326 42.8537 38.4401 42.5612L35.22 39.3411C34.9267 39.0478 34.9267 38.5737 35.22 38.2805C35.5132 37.9872 35.9873 37.9872 36.2806 38.2805L38.7506 40.7505V29.4992C38.7506 29.0844 39.0867 28.7491 39.5007 28.7491C39.9148 28.7491 40.2508 29.0844 40.2508 29.4992V40.7505L42.7208 38.2805C43.0141 37.9872 43.4882 37.9872 43.7814 38.2805ZM52.7825 28.6584L49.5624 25.4382C48.978 24.8539 48.0254 24.8539 47.4411 25.4382L44.221 28.6584C43.9277 28.9516 43.9277 29.4257 44.221 29.719C44.5143 30.0123 44.9883 30.0123 45.2816 29.719L47.7517 27.2489V38.5002C47.7517 38.915 48.0869 39.2503 48.5017 39.2503C48.9165 39.2503 49.2518 38.915 49.2518 38.5002V27.2489L51.7219 29.719C51.8681 29.8652 52.0601 29.9388 52.2522 29.9388C52.4442 29.9388 52.6362 29.8652 52.7825 29.719C53.0758 29.4257 53.0758 28.9516 52.7825 28.6584Z" fill="black"/>
</g>
<path d="M70.8011 31.3636C70.7415 30.8598 70.4995 30.4688 70.0753 30.1903C69.651 29.9119 69.1307 29.7727 68.5142 29.7727C68.0634 29.7727 67.669 29.8456 67.331 29.9915C66.9962 30.1373 66.7344 30.3378 66.5455 30.593C66.3598 30.8482 66.267 31.1383 66.267 31.4631C66.267 31.7348 66.3317 31.9685 66.4609 32.1641C66.5935 32.3563 66.7625 32.517 66.968 32.6463C67.1735 32.7723 67.389 32.8767 67.6143 32.9595C67.8397 33.0391 68.0469 33.1037 68.2358 33.1534L69.2699 33.4318C69.535 33.5014 69.83 33.5975 70.1548 33.7202C70.483 33.8428 70.7962 34.0102 71.0945 34.2223C71.3961 34.4311 71.6446 34.6996 71.8402 35.0277C72.0357 35.3558 72.1335 35.7585 72.1335 36.2358C72.1335 36.786 71.9893 37.2831 71.701 37.7273C71.416 38.1714 70.9983 38.5244 70.4482 38.7862C69.9013 39.0481 69.2367 39.179 68.4545 39.179C67.7254 39.179 67.094 39.0613 66.5604 38.826C66.0301 38.5907 65.6125 38.2625 65.3075 37.8416C65.0059 37.4207 64.8352 36.9318 64.7955 36.375H66.0682C66.1013 36.7595 66.2306 37.0777 66.456 37.3295C66.6847 37.5781 66.973 37.7637 67.321 37.8864C67.6723 38.0057 68.0502 38.0653 68.4545 38.0653C68.9252 38.0653 69.3478 37.9891 69.7223 37.8366C70.0968 37.6809 70.3935 37.4654 70.6122 37.1903C70.831 36.9119 70.9403 36.5871 70.9403 36.2159C70.9403 35.8778 70.8459 35.6027 70.657 35.3906C70.468 35.1785 70.2195 35.0062 69.9112 34.8736C69.603 34.741 69.2699 34.625 68.9119 34.5256L67.6591 34.1676C66.8636 33.9389 66.2339 33.6125 65.7699 33.1882C65.3059 32.764 65.0739 32.2088 65.0739 31.5227C65.0739 30.9527 65.228 30.4555 65.5362 30.0312C65.8478 29.6037 66.2654 29.2723 66.7891 29.0369C67.3161 28.7983 67.9044 28.679 68.554 28.679C69.2102 28.679 69.7936 28.7966 70.304 29.032C70.8144 29.264 71.2188 29.5821 71.517 29.9865C71.8187 30.3909 71.9777 30.8499 71.9943 31.3636H70.8011ZM77.1039 39.1591C76.4145 39.1591 75.8096 38.995 75.2892 38.6669C74.7722 38.3388 74.3678 37.8797 74.0762 37.2898C73.7878 36.6998 73.6436 36.0104 73.6436 35.2216C73.6436 34.4261 73.7878 33.7318 74.0762 33.1385C74.3678 32.5452 74.7722 32.0845 75.2892 31.7564C75.8096 31.4283 76.4145 31.2642 77.1039 31.2642C77.7933 31.2642 78.3965 31.4283 78.9135 31.7564C79.4339 32.0845 79.8382 32.5452 80.1266 33.1385C80.4183 33.7318 80.5641 34.4261 80.5641 35.2216C80.5641 36.0104 80.4183 36.6998 80.1266 37.2898C79.8382 37.8797 79.4339 38.3388 78.9135 38.6669C78.3965 38.995 77.7933 39.1591 77.1039 39.1591ZM77.1039 38.1051C77.6275 38.1051 78.0584 37.9709 78.3965 37.7024C78.7346 37.4339 78.9848 37.081 79.1472 36.6435C79.3096 36.206 79.3908 35.732 79.3908 35.2216C79.3908 34.7112 79.3096 34.2356 79.1472 33.7947C78.9848 33.3539 78.7346 32.9976 78.3965 32.7259C78.0584 32.4541 77.6275 32.3182 77.1039 32.3182C76.5802 32.3182 76.1493 32.4541 75.8113 32.7259C75.4732 32.9976 75.223 33.3539 75.0605 33.7947C74.8981 34.2356 74.8169 34.7112 74.8169 35.2216C74.8169 35.732 74.8981 36.206 75.0605 36.6435C75.223 37.081 75.4732 37.4339 75.8113 37.7024C76.1493 37.9709 76.5802 38.1051 77.1039 38.1051ZM82.3551 39V31.3636H83.4886V32.517H83.5682C83.7074 32.1392 83.9593 31.8326 84.3239 31.5973C84.6884 31.362 85.0994 31.2443 85.5568 31.2443C85.643 31.2443 85.7507 31.246 85.88 31.2493C86.0092 31.2526 86.107 31.2576 86.1733 31.2642V32.4574C86.1335 32.4474 86.0424 32.4325 85.8999 32.4126C85.7607 32.3894 85.6132 32.3778 85.4574 32.3778C85.0862 32.3778 84.7547 32.4557 84.4631 32.6115C84.1747 32.764 83.946 32.9761 83.777 33.2479C83.6113 33.5163 83.5284 33.8229 83.5284 34.1676V39H82.3551ZM91.3636 31.3636V32.358H87.4062V31.3636H91.3636ZM88.5597 29.5341H89.733V36.8125C89.733 37.1439 89.781 37.3925 89.8771 37.5582C89.9766 37.7206 90.1025 37.83 90.255 37.8864C90.4107 37.9394 90.5748 37.9659 90.7472 37.9659C90.8764 37.9659 90.9825 37.9593 91.0653 37.946C91.1482 37.9295 91.2145 37.9162 91.2642 37.9062L91.5028 38.9602C91.4233 38.9901 91.3123 39.0199 91.1697 39.0497C91.0272 39.0829 90.8466 39.0994 90.6278 39.0994C90.2964 39.0994 89.9716 39.0282 89.6534 38.8857C89.3385 38.7431 89.0767 38.526 88.8679 38.2344C88.6624 37.9427 88.5597 37.5748 88.5597 37.1307V29.5341ZM97.2251 39V28.8182H98.3984V32.5767H98.4979C98.584 32.4441 98.7034 32.2751 98.8558 32.0696C99.0116 31.8608 99.2337 31.6752 99.522 31.5128C99.8137 31.3471 100.208 31.2642 100.705 31.2642C101.348 31.2642 101.915 31.425 102.406 31.7464C102.896 32.0679 103.279 32.5237 103.554 33.1136C103.829 33.7036 103.967 34.3996 103.967 35.2017C103.967 36.0104 103.829 36.7114 103.554 37.3047C103.279 37.8946 102.898 38.352 102.411 38.6768C101.923 38.9983 101.362 39.1591 100.725 39.1591C100.235 39.1591 99.8419 39.0779 99.5469 38.9155C99.2519 38.7498 99.0249 38.5625 98.8658 38.3537C98.7067 38.1416 98.584 37.9659 98.4979 37.8267H98.3587V39H97.2251ZM98.3786 35.1818C98.3786 35.7585 98.4631 36.2673 98.6321 36.7081C98.8011 37.1456 99.0481 37.4886 99.3729 37.7372C99.6977 37.9825 100.095 38.1051 100.566 38.1051C101.057 38.1051 101.466 37.9759 101.794 37.7173C102.125 37.4555 102.374 37.1042 102.54 36.6634C102.709 36.2192 102.793 35.7254 102.793 35.1818C102.793 34.6449 102.71 34.161 102.545 33.7301C102.382 33.2959 102.135 32.9529 101.804 32.701C101.476 32.4458 101.063 32.3182 100.566 32.3182C100.089 32.3182 99.6877 32.4392 99.3629 32.6811C99.0381 32.9197 98.7929 33.2545 98.6271 33.6854C98.4614 34.1129 98.3786 34.6117 98.3786 35.1818ZM106.244 41.8636C106.045 41.8636 105.867 41.8471 105.712 41.8139C105.556 41.7841 105.448 41.7543 105.388 41.7244L105.687 40.6903C105.972 40.7633 106.224 40.7898 106.442 40.7699C106.661 40.75 106.855 40.6522 107.024 40.4766C107.196 40.3042 107.354 40.0241 107.496 39.6364L107.715 39.0398L104.891 31.3636H106.164L108.272 37.4489H108.352L110.46 31.3636H111.732L108.491 40.1136C108.345 40.508 108.164 40.8345 107.949 41.093C107.733 41.3549 107.483 41.5488 107.198 41.6747C106.916 41.8007 106.598 41.8636 106.244 41.8636Z" fill="black"/>
<defs>
<filter id="filter0_d_1233_16546" x="0" y="0" width="148" height="70" filterUnits="userSpaceOnUse" color-interpolation-filters="sRGB">
<feFlood flood-opacity="0" result="BackgroundImageFix"/>
<feColorMatrix in="SourceAlpha" type="matrix" values="0 0 0 0 0 0 0 0 0 0 0 0 0 0 0 0 0 0 127 0" result="hardAlpha"/>
<feOffset dx="1" dy="1"/>
<feGaussianBlur stdDeviation="8"/>
<feComposite in2="hardAlpha" operator="out"/>
<feColorMatrix type="matrix" values="0 0 0 0 0 0 0 0 0 0 0 0 0 0 0 0 0 0 0.08 0"/>
<feBlend mode="normal" in2="BackgroundImageFix" result="effect1_dropShadow_1233_16546"/>
<feBlend mode="normal" in="SourceGraphic" in2="effect1_dropShadow_1233_16546" result="shape"/>
</filter>
</defs>
</svg>
