<svg width="48" height="28" viewBox="0 0 48 28" fill="none" xmlns="http://www.w3.org/2000/svg">
<rect width="48" height="28" rx="2" fill="#882EFD"/>
<path d="M24.5 19.1392C23.7509 19.1392 23.1129 18.9354 22.5859 18.5277C22.0589 18.1167 21.6563 17.5218 21.3778 16.7429C21.0994 15.9607 20.9602 15.0161 20.9602 13.9091C20.9602 12.8087 21.0994 11.8691 21.3778 11.0902C21.6596 10.308 22.0639 9.71141 22.5909 9.30043C23.1212 8.88613 23.7576 8.67898 24.5 8.67898C25.2424 8.67898 25.8771 8.88613 26.4041 9.30043C26.9344 9.71141 27.3388 10.308 27.6172 11.0902C27.8989 11.8691 28.0398 12.8087 28.0398 13.9091C28.0398 15.0161 27.9006 15.9607 27.6222 16.7429C27.3438 17.5218 26.9411 18.1167 26.4141 18.5277C25.8871 18.9354 25.2491 19.1392 24.5 19.1392ZM24.5 18.0455C25.2424 18.0455 25.8191 17.6875 26.2301 16.9716C26.6411 16.2557 26.8466 15.2348 26.8466 13.9091C26.8466 13.0275 26.7521 12.2768 26.5632 11.657C26.3776 11.0372 26.1091 10.5649 25.7578 10.2401C25.4098 9.91525 24.9905 9.75284 24.5 9.75284C23.7642 9.75284 23.1892 10.1158 22.7749 10.8416C22.3606 11.5642 22.1534 12.5866 22.1534 13.9091C22.1534 14.7907 22.2462 15.5398 22.4318 16.1562C22.6174 16.7727 22.8842 17.2417 23.2322 17.5632C23.5836 17.8847 24.0062 18.0455 24.5 18.0455Z" fill="white"/>
</svg>
