<svg width="48" height="496" viewBox="0 0 48 496" fill="none" xmlns="http://www.w3.org/2000/svg">
<rect width="48" height="28" rx="2" fill="#F9B023"/>
<path d="M24.5 19.1392C23.7509 19.1392 23.1129 18.9354 22.5859 18.5277C22.0589 18.1167 21.6563 17.5218 21.3778 16.7429C21.0994 15.9607 20.9602 15.0161 20.9602 13.9091C20.9602 12.8087 21.0994 11.8691 21.3778 11.0902C21.6596 10.308 22.0639 9.71141 22.5909 9.30043C23.1212 8.88613 23.7576 8.67898 24.5 8.67898C25.2424 8.67898 25.8771 8.88613 26.4041 9.30043C26.9344 9.71141 27.3388 10.308 27.6172 11.0902C27.8989 11.8691 28.0398 12.8087 28.0398 13.9091C28.0398 15.0161 27.9006 15.9607 27.6222 16.7429C27.3438 17.5218 26.9411 18.1167 26.4141 18.5277C25.8871 18.9354 25.2491 19.1392 24.5 19.1392ZM24.5 18.0455C25.2424 18.0455 25.8191 17.6875 26.2301 16.9716C26.6411 16.2557 26.8466 15.2348 26.8466 13.9091C26.8466 13.0275 26.7521 12.2768 26.5632 11.657C26.3776 11.0372 26.1091 10.5649 25.7578 10.2401C25.4098 9.91525 24.9905 9.75284 24.5 9.75284C23.7642 9.75284 23.1892 10.1158 22.7749 10.8416C22.3606 11.5642 22.1534 12.5866 22.1534 13.9091C22.1534 14.7907 22.2462 15.5398 22.4318 16.1562C22.6174 16.7727 22.8842 17.2417 23.2322 17.5632C23.5836 17.8847 24.0062 18.0455 24.5 18.0455Z" fill="white"/>
<rect y="104" width="48" height="28" rx="2" fill="#F9B023"/>
<path d="M24.5 123.139C23.7509 123.139 23.1129 122.935 22.5859 122.528C22.0589 122.117 21.6563 121.522 21.3778 120.743C21.0994 119.961 20.9602 119.016 20.9602 117.909C20.9602 116.809 21.0994 115.869 21.3778 115.09C21.6596 114.308 22.0639 113.711 22.5909 113.3C23.1212 112.886 23.7576 112.679 24.5 112.679C25.2424 112.679 25.8771 112.886 26.4041 113.3C26.9344 113.711 27.3388 114.308 27.6172 115.09C27.8989 115.869 28.0398 116.809 28.0398 117.909C28.0398 119.016 27.9006 119.961 27.6222 120.743C27.3438 121.522 26.9411 122.117 26.4141 122.528C25.8871 122.935 25.2491 123.139 24.5 123.139ZM24.5 122.045C25.2424 122.045 25.8191 121.687 26.2301 120.972C26.6411 120.256 26.8466 119.235 26.8466 117.909C26.8466 117.027 26.7521 116.277 26.5632 115.657C26.3776 115.037 26.1091 114.565 25.7578 114.24C25.4098 113.915 24.9905 113.753 24.5 113.753C23.7642 113.753 23.1892 114.116 22.7749 114.842C22.3606 115.564 22.1534 116.587 22.1534 117.909C22.1534 118.791 22.2462 119.54 22.4318 120.156C22.6174 120.773 22.8842 121.242 23.2322 121.563C23.5836 121.885 24.0062 122.045 24.5 122.045Z" fill="white"/>
<rect y="208" width="48" height="28" rx="2" fill="#F9B023"/>
<path d="M24.5 227.139C23.7509 227.139 23.1129 226.935 22.5859 226.528C22.0589 226.117 21.6563 225.522 21.3778 224.743C21.0994 223.961 20.9602 223.016 20.9602 221.909C20.9602 220.809 21.0994 219.869 21.3778 219.09C21.6596 218.308 22.0639 217.711 22.5909 217.3C23.1212 216.886 23.7576 216.679 24.5 216.679C25.2424 216.679 25.8771 216.886 26.4041 217.3C26.9344 217.711 27.3388 218.308 27.6172 219.09C27.8989 219.869 28.0398 220.809 28.0398 221.909C28.0398 223.016 27.9006 223.961 27.6222 224.743C27.3438 225.522 26.9411 226.117 26.4141 226.528C25.8871 226.935 25.2491 227.139 24.5 227.139ZM24.5 226.045C25.2424 226.045 25.8191 225.687 26.2301 224.972C26.6411 224.256 26.8466 223.235 26.8466 221.909C26.8466 221.027 26.7521 220.277 26.5632 219.657C26.3776 219.037 26.1091 218.565 25.7578 218.24C25.4098 217.915 24.9905 217.753 24.5 217.753C23.7642 217.753 23.1892 218.116 22.7749 218.842C22.3606 219.564 22.1534 220.587 22.1534 221.909C22.1534 222.791 22.2462 223.54 22.4318 224.156C22.6174 224.773 22.8842 225.242 23.2322 225.563C23.5836 225.885 24.0062 226.045 24.5 226.045Z" fill="white"/>
<rect y="312" width="48" height="28" rx="2" fill="#F9B023"/>
<path d="M24.5 331.139C23.7509 331.139 23.1129 330.935 22.5859 330.528C22.0589 330.117 21.6563 329.522 21.3778 328.743C21.0994 327.961 20.9602 327.016 20.9602 325.909C20.9602 324.809 21.0994 323.869 21.3778 323.09C21.6596 322.308 22.0639 321.711 22.5909 321.3C23.1212 320.886 23.7576 320.679 24.5 320.679C25.2424 320.679 25.8771 320.886 26.4041 321.3C26.9344 321.711 27.3388 322.308 27.6172 323.09C27.8989 323.869 28.0398 324.809 28.0398 325.909C28.0398 327.016 27.9006 327.961 27.6222 328.743C27.3438 329.522 26.9411 330.117 26.4141 330.528C25.8871 330.935 25.2491 331.139 24.5 331.139ZM24.5 330.045C25.2424 330.045 25.8191 329.687 26.2301 328.972C26.6411 328.256 26.8466 327.235 26.8466 325.909C26.8466 325.027 26.7521 324.277 26.5632 323.657C26.3776 323.037 26.1091 322.565 25.7578 322.24C25.4098 321.915 24.9905 321.753 24.5 321.753C23.7642 321.753 23.1892 322.116 22.7749 322.842C22.3606 323.564 22.1534 324.587 22.1534 325.909C22.1534 326.791 22.2462 327.54 22.4318 328.156C22.6174 328.773 22.8842 329.242 23.2322 329.563C23.5836 329.885 24.0062 330.045 24.5 330.045Z" fill="white"/>
<rect y="416" width="48" height="28" rx="2" fill="#F9B023"/>
<path d="M24.5 435.139C23.7509 435.139 23.1129 434.935 22.5859 434.528C22.0589 434.117 21.6563 433.522 21.3778 432.743C21.0994 431.961 20.9602 431.016 20.9602 429.909C20.9602 428.809 21.0994 427.869 21.3778 427.09C21.6596 426.308 22.0639 425.711 22.5909 425.3C23.1212 424.886 23.7576 424.679 24.5 424.679C25.2424 424.679 25.8771 424.886 26.4041 425.3C26.9344 425.711 27.3388 426.308 27.6172 427.09C27.8989 427.869 28.0398 428.809 28.0398 429.909C28.0398 431.016 27.9006 431.961 27.6222 432.743C27.3438 433.522 26.9411 434.117 26.4141 434.528C25.8871 434.935 25.2491 435.139 24.5 435.139ZM24.5 434.045C25.2424 434.045 25.8191 433.687 26.2301 432.972C26.6411 432.256 26.8466 431.235 26.8466 429.909C26.8466 429.027 26.7521 428.277 26.5632 427.657C26.3776 427.037 26.1091 426.565 25.7578 426.24C25.4098 425.915 24.9905 425.753 24.5 425.753C23.7642 425.753 23.1892 426.116 22.7749 426.842C22.3606 427.564 22.1534 428.587 22.1534 429.909C22.1534 430.791 22.2462 431.54 22.4318 432.156C22.6174 432.773 22.8842 433.242 23.2322 433.563C23.5836 433.885 24.0062 434.045 24.5 434.045Z" fill="white"/>
<rect y="156" width="48" height="28" rx="2" fill="#F9B023"/>
<path d="M24.5 175.139C23.7509 175.139 23.1129 174.935 22.5859 174.528C22.0589 174.117 21.6563 173.522 21.3778 172.743C21.0994 171.961 20.9602 171.016 20.9602 169.909C20.9602 168.809 21.0994 167.869 21.3778 167.09C21.6596 166.308 22.0639 165.711 22.5909 165.3C23.1212 164.886 23.7576 164.679 24.5 164.679C25.2424 164.679 25.8771 164.886 26.4041 165.3C26.9344 165.711 27.3388 166.308 27.6172 167.09C27.8989 167.869 28.0398 168.809 28.0398 169.909C28.0398 171.016 27.9006 171.961 27.6222 172.743C27.3438 173.522 26.9411 174.117 26.4141 174.528C25.8871 174.935 25.2491 175.139 24.5 175.139ZM24.5 174.045C25.2424 174.045 25.8191 173.687 26.2301 172.972C26.6411 172.256 26.8466 171.235 26.8466 169.909C26.8466 169.027 26.7521 168.277 26.5632 167.657C26.3776 167.037 26.1091 166.565 25.7578 166.24C25.4098 165.915 24.9905 165.753 24.5 165.753C23.7642 165.753 23.1892 166.116 22.7749 166.842C22.3606 167.564 22.1534 168.587 22.1534 169.909C22.1534 170.791 22.2462 171.54 22.4318 172.156C22.6174 172.773 22.8842 173.242 23.2322 173.563C23.5836 173.885 24.0062 174.045 24.5 174.045Z" fill="white"/>
<rect y="52" width="48" height="28" rx="2" fill="#F9B023"/>
<path d="M24.5 71.1392C23.7509 71.1392 23.1129 70.9354 22.5859 70.5277C22.0589 70.1167 21.6563 69.5218 21.3778 68.7429C21.0994 67.9607 20.9602 67.0161 20.9602 65.9091C20.9602 64.8087 21.0994 63.8691 21.3778 63.0902C21.6596 62.308 22.0639 61.7114 22.5909 61.3004C23.1212 60.8861 23.7576 60.679 24.5 60.679C25.2424 60.679 25.8771 60.8861 26.4041 61.3004C26.9344 61.7114 27.3388 62.308 27.6172 63.0902C27.8989 63.8691 28.0398 64.8087 28.0398 65.9091C28.0398 67.0161 27.9006 67.9607 27.6222 68.7429C27.3438 69.5218 26.9411 70.1167 26.4141 70.5277C25.8871 70.9354 25.2491 71.1392 24.5 71.1392ZM24.5 70.0455C25.2424 70.0455 25.8191 69.6875 26.2301 68.9716C26.6411 68.2557 26.8466 67.2348 26.8466 65.9091C26.8466 65.0275 26.7521 64.2768 26.5632 63.657C26.3776 63.0372 26.1091 62.5649 25.7578 62.2401C25.4098 61.9152 24.9905 61.7528 24.5 61.7528C23.7642 61.7528 23.1892 62.1158 22.7749 62.8416C22.3606 63.5642 22.1534 64.5866 22.1534 65.9091C22.1534 66.7907 22.2462 67.5398 22.4318 68.1562C22.6174 68.7727 22.8842 69.2417 23.2322 69.5632C23.5836 69.8847 24.0062 70.0455 24.5 70.0455Z" fill="white"/>
<rect y="364" width="48" height="28" rx="2" fill="#F9B023"/>
<path d="M24.5 383.139C23.7509 383.139 23.1129 382.935 22.5859 382.528C22.0589 382.117 21.6563 381.522 21.3778 380.743C21.0994 379.961 20.9602 379.016 20.9602 377.909C20.9602 376.809 21.0994 375.869 21.3778 375.09C21.6596 374.308 22.0639 373.711 22.5909 373.3C23.1212 372.886 23.7576 372.679 24.5 372.679C25.2424 372.679 25.8771 372.886 26.4041 373.3C26.9344 373.711 27.3388 374.308 27.6172 375.09C27.8989 375.869 28.0398 376.809 28.0398 377.909C28.0398 379.016 27.9006 379.961 27.6222 380.743C27.3438 381.522 26.9411 382.117 26.4141 382.528C25.8871 382.935 25.2491 383.139 24.5 383.139ZM24.5 382.045C25.2424 382.045 25.8191 381.687 26.2301 380.972C26.6411 380.256 26.8466 379.235 26.8466 377.909C26.8466 377.027 26.7521 376.277 26.5632 375.657C26.3776 375.037 26.1091 374.565 25.7578 374.24C25.4098 373.915 24.9905 373.753 24.5 373.753C23.7642 373.753 23.1892 374.116 22.7749 374.842C22.3606 375.564 22.1534 376.587 22.1534 377.909C22.1534 378.791 22.2462 379.54 22.4318 380.156C22.6174 380.773 22.8842 381.242 23.2322 381.563C23.5836 381.885 24.0062 382.045 24.5 382.045Z" fill="white"/>
<rect y="260" width="48" height="28" rx="2" fill="#F9B023"/>
<path d="M24.5 279.139C23.7509 279.139 23.1129 278.935 22.5859 278.528C22.0589 278.117 21.6563 277.522 21.3778 276.743C21.0994 275.961 20.9602 275.016 20.9602 273.909C20.9602 272.809 21.0994 271.869 21.3778 271.09C21.6596 270.308 22.0639 269.711 22.5909 269.3C23.1212 268.886 23.7576 268.679 24.5 268.679C25.2424 268.679 25.8771 268.886 26.4041 269.3C26.9344 269.711 27.3388 270.308 27.6172 271.09C27.8989 271.869 28.0398 272.809 28.0398 273.909C28.0398 275.016 27.9006 275.961 27.6222 276.743C27.3438 277.522 26.9411 278.117 26.4141 278.528C25.8871 278.935 25.2491 279.139 24.5 279.139ZM24.5 278.045C25.2424 278.045 25.8191 277.687 26.2301 276.972C26.6411 276.256 26.8466 275.235 26.8466 273.909C26.8466 273.027 26.7521 272.277 26.5632 271.657C26.3776 271.037 26.1091 270.565 25.7578 270.24C25.4098 269.915 24.9905 269.753 24.5 269.753C23.7642 269.753 23.1892 270.116 22.7749 270.842C22.3606 271.564 22.1534 272.587 22.1534 273.909C22.1534 274.791 22.2462 275.54 22.4318 276.156C22.6174 276.773 22.8842 277.242 23.2322 277.563C23.5836 277.885 24.0062 278.045 24.5 278.045Z" fill="white"/>
<rect y="468" width="48" height="28" rx="2" fill="#F9B023"/>
<path d="M24.5 487.139C23.7509 487.139 23.1129 486.935 22.5859 486.528C22.0589 486.117 21.6563 485.522 21.3778 484.743C21.0994 483.961 20.9602 483.016 20.9602 481.909C20.9602 480.809 21.0994 479.869 21.3778 479.09C21.6596 478.308 22.0639 477.711 22.5909 477.3C23.1212 476.886 23.7576 476.679 24.5 476.679C25.2424 476.679 25.8771 476.886 26.4041 477.3C26.9344 477.711 27.3388 478.308 27.6172 479.09C27.8989 479.869 28.0398 480.809 28.0398 481.909C28.0398 483.016 27.9006 483.961 27.6222 484.743C27.3438 485.522 26.9411 486.117 26.4141 486.528C25.8871 486.935 25.2491 487.139 24.5 487.139ZM24.5 486.045C25.2424 486.045 25.8191 485.687 26.2301 484.972C26.6411 484.256 26.8466 483.235 26.8466 481.909C26.8466 481.027 26.7521 480.277 26.5632 479.657C26.3776 479.037 26.1091 478.565 25.7578 478.24C25.4098 477.915 24.9905 477.753 24.5 477.753C23.7642 477.753 23.1892 478.116 22.7749 478.842C22.3606 479.564 22.1534 480.587 22.1534 481.909C22.1534 482.791 22.2462 483.54 22.4318 484.156C22.6174 484.773 22.8842 485.242 23.2322 485.563C23.5836 485.885 24.0062 486.045 24.5 486.045Z" fill="white"/>
</svg>
